<svg width="1867" height="80" viewBox="0 0 1867 80" fill="none" xmlns="http://www.w3.org/2000/svg">
<rect x="1.5" y="1.5" width="727" height="77" stroke="#9CA3AF" stroke-width="3"/>
<path d="M48.2266 29.8516C48.2266 31.8047 47.7578 33.5469 46.8203 35.0781C45.8984 36.6094 44.5703 37.8047 42.8359 38.6641C41.1172 39.5234 39.125 39.9531 36.8594 39.9531H30.2734V52H25.7969V20.3828H36.5781C40.2969 20.3828 43.1641 21.2188 45.1797 22.8906C47.2109 24.5469 48.2266 26.8672 48.2266 29.8516ZM43.7266 29.9219C43.7266 25.9531 41.1641 23.9688 36.0391 23.9688H30.2734V36.4141H36.2266C38.5547 36.4141 40.3828 35.8438 41.7109 34.7031C43.0547 33.5625 43.7266 31.9688 43.7266 29.9219ZM76.5391 39.2969C76.5391 43.5625 75.5547 46.8281 73.5859 49.0938C71.6328 51.3438 68.8047 52.4688 65.1016 52.4688C61.4766 52.4688 58.6953 51.3281 56.7578 49.0469C54.8359 46.7656 53.875 43.5156 53.875 39.2969C53.875 34.9375 54.8594 31.6641 56.8281 29.4766C58.8125 27.2734 61.6172 26.1719 65.2422 26.1719C69.0547 26.1719 71.8906 27.2578 73.75 29.4297C75.6094 31.6016 76.5391 34.8906 76.5391 39.2969ZM72.1094 39.2969C72.1094 35.9375 71.5703 33.4297 70.4922 31.7734C69.4297 30.1172 67.7031 29.2891 65.3125 29.2891C62.8906 29.2891 61.1172 30.1328 59.9922 31.8203C58.8672 33.5078 58.3047 36 58.3047 39.2969C58.3047 42.5781 58.8672 45.0781 59.9922 46.7969C61.1172 48.5 62.8047 49.3516 65.0547 49.3516C67.5391 49.3516 69.3359 48.5156 70.4453 46.8438C71.5547 45.1719 72.1094 42.6562 72.1094 39.2969ZM104.5 44.7578C104.5 47.1641 103.586 49.0547 101.758 50.4297C99.9453 51.7891 97.4297 52.4688 94.2109 52.4688C90.9922 52.4688 88.5391 51.9688 86.8516 50.9688C85.1797 49.9531 84.0859 48.3594 83.5703 46.1875L87.2969 45.4609C87.5938 46.8047 88.2266 47.7891 89.1953 48.4141C90.1797 49.0234 91.8516 49.3281 94.2109 49.3281C98.4297 49.3281 100.539 47.9922 100.539 45.3203C100.539 44.3203 100.156 43.5156 99.3906 42.9062C98.625 42.2812 97.4531 41.7734 95.875 41.3828C91.75 40.3672 89.1328 39.5703 88.0234 38.9922C86.9141 38.4141 86.0625 37.6953 85.4688 36.8359C84.875 35.9609 84.5781 34.875 84.5781 33.5781C84.5781 31.2812 85.4062 29.4844 87.0625 28.1875C88.7188 26.8906 91.1172 26.2422 94.2578 26.2422C97.0078 26.2422 99.2031 26.7656 100.844 27.8125C102.484 28.8438 103.508 30.3516 103.914 32.3359L100.117 32.8047C99.9453 31.6797 99.3906 30.8281 98.4531 30.25C97.5156 29.6719 96.1172 29.3828 94.2578 29.3828C90.4297 29.3828 88.5156 30.5625 88.5156 32.9219C88.5156 33.8594 88.8359 34.6094 89.4766 35.1719C90.1328 35.7344 91.1797 36.1875 92.6172 36.5312L95.4062 37.2578C97.9531 37.8828 99.7812 38.5 100.891 39.1094C102.016 39.7188 102.898 40.4844 103.539 41.4062C104.18 42.3125 104.5 43.4297 104.5 44.7578ZM125.945 48.6719H134.852V52H111.836V48.6719H121.727V29.9688H114.25V26.6406H125.945V48.6719ZM121.258 21.7188V17.2188H125.945V21.7188H121.258ZM141.766 29.9688V26.6406H145.75L147.109 20.0312H149.922V26.6406H160.047V29.9688H149.922V45.25C149.922 46.4844 150.25 47.3984 150.906 47.9922C151.578 48.5859 152.672 48.8828 154.188 48.8828C156.281 48.8828 158.602 48.6172 161.148 48.0859V51.2969C158.508 52.0156 155.891 52.375 153.297 52.375C150.766 52.375 148.867 51.8438 147.602 50.7812C146.336 49.7031 145.703 48.0078 145.703 45.6953V29.9688H141.766ZM183.602 48.6719H192.508V52H169.492V48.6719H179.383V29.9688H171.906V26.6406H183.602V48.6719ZM178.914 21.7188V17.2188H183.602V21.7188H178.914ZM220.68 39.2969C220.68 43.5625 219.695 46.8281 217.727 49.0938C215.773 51.3438 212.945 52.4688 209.242 52.4688C205.617 52.4688 202.836 51.3281 200.898 49.0469C198.977 46.7656 198.016 43.5156 198.016 39.2969C198.016 34.9375 199 31.6641 200.969 29.4766C202.953 27.2734 205.758 26.1719 209.383 26.1719C213.195 26.1719 216.031 27.2578 217.891 29.4297C219.75 31.6016 220.68 34.8906 220.68 39.2969ZM216.25 39.2969C216.25 35.9375 215.711 33.4297 214.633 31.7734C213.57 30.1172 211.844 29.2891 209.453 29.2891C207.031 29.2891 205.258 30.1328 204.133 31.8203C203.008 33.5078 202.445 36 202.445 39.2969C202.445 42.5781 203.008 45.0781 204.133 46.7969C205.258 48.5 206.945 49.3516 209.195 49.3516C211.68 49.3516 213.477 48.5156 214.586 46.8438C215.695 45.1719 216.25 42.6562 216.25 39.2969ZM244.141 52V35.7109C244.141 33.5859 243.727 32.0078 242.898 30.9766C242.086 29.9453 240.781 29.4297 238.984 29.4297C237.047 29.4297 235.453 30.1406 234.203 31.5625C232.969 32.9688 232.352 34.8828 232.352 37.3047V52H228.133V32.0547C228.133 29.1016 228.086 27.2969 227.992 26.6406H231.977C231.992 26.7188 232.008 26.9297 232.023 27.2734C232.039 27.6172 232.055 28.0156 232.07 28.4688C232.102 28.9062 232.133 29.7422 232.164 30.9766H232.234C233.875 27.7734 236.578 26.1719 240.344 26.1719C243.047 26.1719 245.062 26.9062 246.391 28.375C247.719 29.8281 248.383 32.0703 248.383 35.1016V52H244.141ZM307.891 43.3281C307.891 46.2031 306.836 48.4453 304.727 50.0547C302.633 51.6641 299.641 52.4688 295.75 52.4688C288.609 52.4688 284.461 49.6719 283.305 44.0781L287.641 43.2109C288.078 45.2266 288.984 46.6953 290.359 47.6172C291.734 48.5234 293.57 48.9766 295.867 48.9766C298.352 48.9766 300.234 48.4922 301.516 47.5234C302.812 46.5547 303.461 45.1797 303.461 43.3984C303.461 42.3047 303.203 41.4141 302.688 40.7266C302.188 40.0391 301.523 39.4766 300.695 39.0391C299.867 38.6016 298.93 38.25 297.883 37.9844C296.852 37.7031 295.805 37.4297 294.742 37.1641C292.227 36.5078 290.43 35.9219 289.352 35.4062C288.289 34.8906 287.438 34.3047 286.797 33.6484C286.156 32.9766 285.672 32.2109 285.344 31.3516C285.016 30.4922 284.852 29.4844 284.852 28.3281C284.852 25.625 285.797 23.5469 287.688 22.0938C289.594 20.625 292.32 19.8906 295.867 19.8906C299.18 19.8906 301.711 20.4688 303.461 21.625C305.211 22.7812 306.43 24.7344 307.117 27.4844L302.711 28.2578C302.336 26.5078 301.586 25.2422 300.461 24.4609C299.336 23.6641 297.797 23.2656 295.844 23.2656C291.422 23.2656 289.211 24.9297 289.211 28.2578C289.211 29.1953 289.414 29.9609 289.82 30.5547C290.242 31.1328 290.805 31.6172 291.508 32.0078C292.227 32.3828 293.055 32.6953 293.992 32.9453C294.945 33.1953 295.961 33.4609 297.039 33.7422C299.211 34.2891 300.773 34.75 301.727 35.125C302.68 35.4844 303.523 35.8984 304.258 36.3672C305.008 36.8359 305.648 37.3906 306.18 38.0312C306.711 38.6719 307.125 39.4219 307.422 40.2812C307.734 41.1406 307.891 42.1562 307.891 43.3281ZM327.742 48.6719H336.648V52H313.633V48.6719H323.523V29.9688H316.047V26.6406H327.742V48.6719ZM323.055 21.7188V17.2188H327.742V21.7188H323.055ZM342.555 52V48.7891L358.516 29.8984H343.492V26.6406H363.273V29.8516L347.289 48.7422H364.141V52H342.555ZM375.484 40.2109C375.484 43.0547 376.109 45.2812 377.359 46.8906C378.625 48.5 380.352 49.3047 382.539 49.3047C384.148 49.3047 385.555 48.9609 386.758 48.2734C387.977 47.5703 388.789 46.6172 389.195 45.4141L392.898 46.4688C392.211 48.4062 390.945 49.8906 389.102 50.9219C387.273 51.9531 385.086 52.4688 382.539 52.4688C378.852 52.4688 376.016 51.3203 374.031 49.0234C372.047 46.7266 371.055 43.4375 371.055 39.1562C371.055 34.9844 372.023 31.7812 373.961 29.5469C375.914 27.2969 378.727 26.1719 382.398 26.1719C386.07 26.1719 388.852 27.2891 390.742 29.5234C392.633 31.7578 393.578 35.1328 393.578 39.6484V40.2109H375.484ZM382.445 29.2891C380.352 29.2891 378.695 29.9766 377.477 31.3516C376.258 32.7109 375.609 34.5859 375.531 36.9766H389.219C388.781 31.8516 386.523 29.2891 382.445 29.2891ZM451.023 40.5156C451.023 44.6875 450.133 47.7266 448.352 49.6328C446.57 51.5234 443.711 52.4688 439.773 52.4688C435.961 52.4688 433.195 51.5547 431.477 49.7266C429.773 47.8828 428.922 44.9531 428.922 40.9375V20.3828H433.398V40.3281C433.398 43.5156 433.852 45.7344 434.758 46.9844C435.68 48.2188 437.344 48.8359 439.75 48.8359C442.266 48.8359 444.031 48.1953 445.047 46.9141C446.062 45.6328 446.57 43.3359 446.57 40.0234V20.3828H451.023V40.5156ZM474.766 52V35.7109C474.766 33.5859 474.352 32.0078 473.523 30.9766C472.711 29.9453 471.406 29.4297 469.609 29.4297C467.672 29.4297 466.078 30.1406 464.828 31.5625C463.594 32.9688 462.977 34.8828 462.977 37.3047V52H458.758V32.0547C458.758 29.1016 458.711 27.2969 458.617 26.6406H462.602C462.617 26.7188 462.633 26.9297 462.648 27.2734C462.664 27.6172 462.68 28.0156 462.695 28.4688C462.727 28.9062 462.758 29.7422 462.789 30.9766H462.859C464.5 27.7734 467.203 26.1719 470.969 26.1719C473.672 26.1719 475.688 26.9062 477.016 28.375C478.344 29.8281 479.008 32.0703 479.008 35.1016V52H474.766ZM500.711 48.6719H509.617V52H486.602V48.6719H496.492V29.9688H489.016V26.6406H500.711V48.6719ZM496.023 21.7188V17.2188H500.711V21.7188H496.023ZM516.531 29.9688V26.6406H520.516L521.875 20.0312H524.688V26.6406H534.812V29.9688H524.688V45.25C524.688 46.4844 525.016 47.3984 525.672 47.9922C526.344 48.5859 527.438 48.8828 528.953 48.8828C531.047 48.8828 533.367 48.6172 535.914 48.0859V51.2969C533.273 52.0156 530.656 52.375 528.062 52.375C525.531 52.375 523.633 51.8438 522.367 50.7812C521.102 49.7031 520.469 48.0078 520.469 45.6953V29.9688H516.531ZM582.133 39.5781C582.133 43.875 582.797 47.7578 584.125 51.2266C585.453 54.6953 587.617 58.2734 590.617 61.9609H586.164C583.164 58.2734 581.008 54.7031 579.695 51.25C578.398 47.7812 577.75 43.875 577.75 39.5312C577.75 35.2656 578.391 31.4219 579.672 28C580.953 24.5625 583.117 20.9688 586.164 17.2188H590.617C587.617 20.9062 585.453 24.4922 584.125 27.9766C582.797 31.4453 582.133 35.3125 582.133 39.5781ZM623.992 40.5156C623.992 44.6875 623.102 47.7266 621.32 49.6328C619.539 51.5234 616.68 52.4688 612.742 52.4688C608.93 52.4688 606.164 51.5547 604.445 49.7266C602.742 47.8828 601.891 44.9531 601.891 40.9375V20.3828H606.367V40.3281C606.367 43.5156 606.82 45.7344 607.727 46.9844C608.648 48.2188 610.312 48.8359 612.719 48.8359C615.234 48.8359 617 48.1953 618.016 46.9141C619.031 45.6328 619.539 43.3359 619.539 40.0234V20.3828H623.992V40.5156ZM653.828 43.3281C653.828 46.2031 652.773 48.4453 650.664 50.0547C648.57 51.6641 645.578 52.4688 641.688 52.4688C634.547 52.4688 630.398 49.6719 629.242 44.0781L633.578 43.2109C634.016 45.2266 634.922 46.6953 636.297 47.6172C637.672 48.5234 639.508 48.9766 641.805 48.9766C644.289 48.9766 646.172 48.4922 647.453 47.5234C648.75 46.5547 649.398 45.1797 649.398 43.3984C649.398 42.3047 649.141 41.4141 648.625 40.7266C648.125 40.0391 647.461 39.4766 646.633 39.0391C645.805 38.6016 644.867 38.25 643.82 37.9844C642.789 37.7031 641.742 37.4297 640.68 37.1641C638.164 36.5078 636.367 35.9219 635.289 35.4062C634.227 34.8906 633.375 34.3047 632.734 33.6484C632.094 32.9766 631.609 32.2109 631.281 31.3516C630.953 30.4922 630.789 29.4844 630.789 28.3281C630.789 25.625 631.734 23.5469 633.625 22.0938C635.531 20.625 638.258 19.8906 641.805 19.8906C645.117 19.8906 647.648 20.4688 649.398 21.625C651.148 22.7812 652.367 24.7344 653.055 27.4844L648.648 28.2578C648.273 26.5078 647.523 25.2422 646.398 24.4609C645.273 23.6641 643.734 23.2656 641.781 23.2656C637.359 23.2656 635.148 24.9297 635.148 28.2578C635.148 29.1953 635.352 29.9609 635.758 30.5547C636.18 31.1328 636.742 31.6172 637.445 32.0078C638.164 32.3828 638.992 32.6953 639.93 32.9453C640.883 33.1953 641.898 33.4609 642.977 33.7422C645.148 34.2891 646.711 34.75 647.664 35.125C648.617 35.4844 649.461 35.8984 650.195 36.3672C650.945 36.8359 651.586 37.3906 652.117 38.0312C652.648 38.6719 653.062 39.4219 653.359 40.2812C653.672 41.1406 653.828 42.1562 653.828 43.3281ZM682.586 35.875C682.586 41.0469 681.383 45.0312 678.977 47.8281C676.586 50.6094 673.156 52 668.688 52H660.016V20.3828H667.305C672.445 20.3828 676.273 21.6719 678.789 24.25C681.32 26.8125 682.586 30.6875 682.586 35.875ZM678.086 35.875C678.086 31.75 677.227 28.75 675.508 26.875C673.789 24.9844 671.062 24.0391 667.328 24.0391H664.492V48.3438H668.289C671.602 48.3438 674.062 47.3047 675.672 45.2266C677.281 43.1484 678.086 40.0312 678.086 35.875ZM705.789 39.5312C705.789 43.9062 705.141 47.8203 703.844 51.2734C702.562 54.7109 700.422 58.2734 697.422 61.9609H692.922C695.984 58.1953 698.172 54.5781 699.484 51.1094C700.797 47.625 701.453 43.7812 701.453 39.5781C701.453 35.3906 700.797 31.5625 699.484 28.0938C698.172 24.6094 695.984 20.9844 692.922 17.2188H697.422C700.469 20.9688 702.625 24.5469 703.891 27.9531C705.156 31.3594 705.789 35.2188 705.789 39.5312Z" fill="#86EFAC"/>
<path d="M803.078 31.9375V28.4688H826.398V31.9375H803.078ZM803.078 43.9375V40.4688H826.398V43.9375H803.078Z" fill="#9CA3AF"/>
<rect x="898.5" y="1.5" width="562" height="77" stroke="#9CA3AF" stroke-width="3"/>
<path d="M1507.73 25.1562L1513.91 22.7422L1514.97 25.8359L1508.36 27.5469L1512.7 33.4062L1509.91 35.0938L1506.39 29.0469L1502.73 35.0469L1499.95 33.3594L1504.38 27.5469L1497.81 25.8359L1498.87 22.6953L1505.12 25.2031L1504.84 18.2422H1508.03L1507.73 25.1562ZM1553.45 53V21.3828H1574.99V25.0391H1557.93V34.9297H1573.59V38.5391H1557.93V49.3438H1575.95V53H1553.45ZM1598.83 53V36.7109C1598.83 34.5859 1598.41 33.0078 1597.59 31.9766C1596.77 30.9453 1595.47 30.4297 1593.67 30.4297C1591.73 30.4297 1590.14 31.1406 1588.89 32.5625C1587.66 33.9688 1587.04 35.8828 1587.04 38.3047V53H1582.82V33.0547C1582.82 30.1016 1582.77 28.2969 1582.68 27.6406H1586.66C1586.68 27.7188 1586.7 27.9297 1586.71 28.2734C1586.73 28.6172 1586.74 29.0156 1586.76 29.4688C1586.79 29.9062 1586.82 30.7422 1586.85 31.9766H1586.92C1588.56 28.7734 1591.27 27.1719 1595.03 27.1719C1597.73 27.1719 1599.75 27.9062 1601.08 29.375C1602.41 30.8281 1603.07 33.0703 1603.07 36.1016V53H1598.83ZM1611.77 30.9688V27.6406H1615.75L1617.11 21.0312H1619.92V27.6406H1630.05V30.9688H1619.92V46.25C1619.92 47.4844 1620.25 48.3984 1620.91 48.9922C1621.58 49.5859 1622.67 49.8828 1624.19 49.8828C1626.28 49.8828 1628.6 49.6172 1631.15 49.0859V52.2969C1628.51 53.0156 1625.89 53.375 1623.3 53.375C1620.77 53.375 1618.87 52.8438 1617.6 51.7812C1616.34 50.7031 1615.7 49.0078 1615.7 46.6953V30.9688H1611.77ZM1660.63 31.4844C1658.88 31.1875 1657.23 31.0391 1655.66 31.0391C1653.15 31.0391 1651.12 31.9844 1649.57 33.875C1648.02 35.7656 1647.25 38.1719 1647.25 41.0938V53H1643.03V36.5703C1643.03 35.3828 1642.92 33.9844 1642.7 32.375C1642.5 30.7656 1642.2 29.1875 1641.81 27.6406H1645.82C1646.45 29.7969 1646.82 31.75 1646.95 33.5H1647.06C1647.84 31.75 1648.61 30.4688 1649.36 29.6562C1650.11 28.8281 1651 28.2109 1652.03 27.8047C1653.06 27.3828 1654.32 27.1719 1655.8 27.1719C1657.43 27.1719 1659.04 27.3047 1660.63 27.5703V31.4844ZM1671.81 62.9609C1670.66 62.9609 1669.69 62.875 1668.91 62.7031V59.5391C1669.5 59.6328 1670.16 59.6797 1670.88 59.6797C1672.11 59.6797 1673.27 59.2188 1674.34 58.2969C1675.44 57.375 1676.36 55.9062 1677.11 53.8906L1677.53 52.7422L1666.52 27.6406H1671.02L1677.2 42.6875C1678.62 46.1875 1679.39 48.1719 1679.5 48.6406L1680.46 46.0625L1687.73 27.6406H1692.18L1681.49 53C1680.1 56.6719 1678.66 59.25 1677.16 60.7344C1675.67 62.2188 1673.89 62.9609 1671.81 62.9609ZM1748.85 30.8516C1748.85 32.8047 1748.38 34.5469 1747.45 36.0781C1746.52 37.6094 1745.2 38.8047 1743.46 39.6641C1741.74 40.5234 1739.75 40.9531 1737.48 40.9531H1730.9V53H1726.42V21.3828H1737.2C1740.92 21.3828 1743.79 22.2188 1745.8 23.8906C1747.84 25.5469 1748.85 27.8672 1748.85 30.8516ZM1744.35 30.9219C1744.35 26.9531 1741.79 24.9688 1736.66 24.9688H1730.9V37.4141H1736.85C1739.18 37.4141 1741.01 36.8438 1742.34 35.7031C1743.68 34.5625 1744.35 32.9688 1744.35 30.9219ZM1775.95 31.4844C1774.2 31.1875 1772.54 31.0391 1770.98 31.0391C1768.46 31.0391 1766.43 31.9844 1764.88 33.875C1763.34 35.7656 1762.56 38.1719 1762.56 41.0938V53H1758.34V36.5703C1758.34 35.3828 1758.23 33.9844 1758.02 32.375C1757.81 30.7656 1757.52 29.1875 1757.12 27.6406H1761.13C1761.76 29.7969 1762.13 31.75 1762.26 33.5H1762.38C1763.16 31.75 1763.92 30.4688 1764.67 29.6562C1765.42 28.8281 1766.31 28.2109 1767.34 27.8047C1768.38 27.3828 1769.63 27.1719 1771.12 27.1719C1772.74 27.1719 1774.35 27.3047 1775.95 27.5703V31.4844ZM1797.74 49.6719H1806.65V53H1783.63V49.6719H1793.52V30.9688H1786.05V27.6406H1797.74V49.6719ZM1793.05 22.7188V18.2188H1797.74V22.7188H1793.05ZM1812.16 40.2969C1812.16 36.0781 1813.16 32.8359 1815.18 30.5703C1817.2 28.3047 1820.11 27.1719 1823.92 27.1719C1826.77 27.1719 1829.11 27.8594 1830.95 29.2344C1832.8 30.5938 1833.94 32.4297 1834.38 34.7422L1829.88 35.0703C1829.62 33.6484 1829 32.5312 1828 31.7188C1827 30.8906 1825.58 30.4766 1823.73 30.4766C1821.27 30.4766 1819.45 31.2422 1818.3 32.7734C1817.16 34.3047 1816.59 36.7812 1816.59 40.2031C1816.59 43.6719 1817.16 46.2109 1818.3 47.8203C1819.45 49.4141 1821.26 50.2109 1823.71 50.2109C1825.4 50.2109 1826.8 49.7969 1827.91 48.9688C1829.02 48.1406 1829.7 46.875 1829.97 45.1719L1834.42 45.4531C1834.22 46.9531 1833.65 48.3203 1832.71 49.5547C1831.79 50.7734 1830.56 51.7344 1829.03 52.4375C1827.5 53.125 1825.79 53.4688 1823.9 53.4688C1820.07 53.4688 1817.16 52.3438 1815.16 50.0938C1813.16 47.8438 1812.16 44.5781 1812.16 40.2969ZM1845.48 41.2109C1845.48 44.0547 1846.11 46.2812 1847.36 47.8906C1848.62 49.5 1850.35 50.3047 1852.54 50.3047C1854.15 50.3047 1855.55 49.9609 1856.76 49.2734C1857.98 48.5703 1858.79 47.6172 1859.2 46.4141L1862.9 47.4688C1862.21 49.4062 1860.95 50.8906 1859.1 51.9219C1857.27 52.9531 1855.09 53.4688 1852.54 53.4688C1848.85 53.4688 1846.02 52.3203 1844.03 50.0234C1842.05 47.7266 1841.05 44.4375 1841.05 40.1562C1841.05 35.9844 1842.02 32.7812 1843.96 30.5469C1845.91 28.2969 1848.73 27.1719 1852.4 27.1719C1856.07 27.1719 1858.85 28.2891 1860.74 30.5234C1862.63 32.7578 1863.58 36.1328 1863.58 40.6484V41.2109H1845.48ZM1852.45 30.2891C1850.35 30.2891 1848.7 30.9766 1847.48 32.3516C1846.26 33.7109 1845.61 35.5859 1845.53 37.9766H1859.22C1858.78 32.8516 1856.52 30.2891 1852.45 30.2891Z" fill="#9CA3AF"/>
<path d="M945.227 29.8516C945.227 31.8047 944.758 33.5469 943.82 35.0781C942.898 36.6094 941.57 37.8047 939.836 38.6641C938.117 39.5234 936.125 39.9531 933.859 39.9531H927.273V52H922.797V20.3828H933.578C937.297 20.3828 940.164 21.2188 942.18 22.8906C944.211 24.5469 945.227 26.8672 945.227 29.8516ZM940.727 29.9219C940.727 25.9531 938.164 23.9688 933.039 23.9688H927.273V36.4141H933.227C935.555 36.4141 937.383 35.8438 938.711 34.7031C940.055 33.5625 940.727 31.9688 940.727 29.9219ZM973.539 39.2969C973.539 43.5625 972.555 46.8281 970.586 49.0938C968.633 51.3438 965.805 52.4688 962.102 52.4688C958.477 52.4688 955.695 51.3281 953.758 49.0469C951.836 46.7656 950.875 43.5156 950.875 39.2969C950.875 34.9375 951.859 31.6641 953.828 29.4766C955.812 27.2734 958.617 26.1719 962.242 26.1719C966.055 26.1719 968.891 27.2578 970.75 29.4297C972.609 31.6016 973.539 34.8906 973.539 39.2969ZM969.109 39.2969C969.109 35.9375 968.57 33.4297 967.492 31.7734C966.43 30.1172 964.703 29.2891 962.312 29.2891C959.891 29.2891 958.117 30.1328 956.992 31.8203C955.867 33.5078 955.305 36 955.305 39.2969C955.305 42.5781 955.867 45.0781 956.992 46.7969C958.117 48.5 959.805 49.3516 962.055 49.3516C964.539 49.3516 966.336 48.5156 967.445 46.8438C968.555 45.1719 969.109 42.6562 969.109 39.2969ZM1001.5 44.7578C1001.5 47.1641 1000.59 49.0547 998.758 50.4297C996.945 51.7891 994.43 52.4688 991.211 52.4688C987.992 52.4688 985.539 51.9688 983.852 50.9688C982.18 49.9531 981.086 48.3594 980.57 46.1875L984.297 45.4609C984.594 46.8047 985.227 47.7891 986.195 48.4141C987.18 49.0234 988.852 49.3281 991.211 49.3281C995.43 49.3281 997.539 47.9922 997.539 45.3203C997.539 44.3203 997.156 43.5156 996.391 42.9062C995.625 42.2812 994.453 41.7734 992.875 41.3828C988.75 40.3672 986.133 39.5703 985.023 38.9922C983.914 38.4141 983.062 37.6953 982.469 36.8359C981.875 35.9609 981.578 34.875 981.578 33.5781C981.578 31.2812 982.406 29.4844 984.062 28.1875C985.719 26.8906 988.117 26.2422 991.258 26.2422C994.008 26.2422 996.203 26.7656 997.844 27.8125C999.484 28.8438 1000.51 30.3516 1000.91 32.3359L997.117 32.8047C996.945 31.6797 996.391 30.8281 995.453 30.25C994.516 29.6719 993.117 29.3828 991.258 29.3828C987.43 29.3828 985.516 30.5625 985.516 32.9219C985.516 33.8594 985.836 34.6094 986.477 35.1719C987.133 35.7344 988.18 36.1875 989.617 36.5312L992.406 37.2578C994.953 37.8828 996.781 38.5 997.891 39.1094C999.016 39.7188 999.898 40.4844 1000.54 41.4062C1001.18 42.3125 1001.5 43.4297 1001.5 44.7578ZM1022.95 48.6719H1031.85V52H1008.84V48.6719H1018.73V29.9688H1011.25V26.6406H1022.95V48.6719ZM1018.26 21.7188V17.2188H1022.95V21.7188H1018.26ZM1038.77 29.9688V26.6406H1042.75L1044.11 20.0312H1046.92V26.6406H1057.05V29.9688H1046.92V45.25C1046.92 46.4844 1047.25 47.3984 1047.91 47.9922C1048.58 48.5859 1049.67 48.8828 1051.19 48.8828C1053.28 48.8828 1055.6 48.6172 1058.15 48.0859V51.2969C1055.51 52.0156 1052.89 52.375 1050.3 52.375C1047.77 52.375 1045.87 51.8438 1044.6 50.7812C1043.34 49.7031 1042.7 48.0078 1042.7 45.6953V29.9688H1038.77ZM1080.6 48.6719H1089.51V52H1066.49V48.6719H1076.38V29.9688H1068.91V26.6406H1080.6V48.6719ZM1075.91 21.7188V17.2188H1080.6V21.7188H1075.91ZM1117.68 39.2969C1117.68 43.5625 1116.7 46.8281 1114.73 49.0938C1112.77 51.3438 1109.95 52.4688 1106.24 52.4688C1102.62 52.4688 1099.84 51.3281 1097.9 49.0469C1095.98 46.7656 1095.02 43.5156 1095.02 39.2969C1095.02 34.9375 1096 31.6641 1097.97 29.4766C1099.95 27.2734 1102.76 26.1719 1106.38 26.1719C1110.2 26.1719 1113.03 27.2578 1114.89 29.4297C1116.75 31.6016 1117.68 34.8906 1117.68 39.2969ZM1113.25 39.2969C1113.25 35.9375 1112.71 33.4297 1111.63 31.7734C1110.57 30.1172 1108.84 29.2891 1106.45 29.2891C1104.03 29.2891 1102.26 30.1328 1101.13 31.8203C1100.01 33.5078 1099.45 36 1099.45 39.2969C1099.45 42.5781 1100.01 45.0781 1101.13 46.7969C1102.26 48.5 1103.95 49.3516 1106.2 49.3516C1108.68 49.3516 1110.48 48.5156 1111.59 46.8438C1112.7 45.1719 1113.25 42.6562 1113.25 39.2969ZM1141.14 52V35.7109C1141.14 33.5859 1140.73 32.0078 1139.9 30.9766C1139.09 29.9453 1137.78 29.4297 1135.98 29.4297C1134.05 29.4297 1132.45 30.1406 1131.2 31.5625C1129.97 32.9688 1129.35 34.8828 1129.35 37.3047V52H1125.13V32.0547C1125.13 29.1016 1125.09 27.2969 1124.99 26.6406H1128.98C1128.99 26.7188 1129.01 26.9297 1129.02 27.2734C1129.04 27.6172 1129.05 28.0156 1129.07 28.4688C1129.1 28.9062 1129.13 29.7422 1129.16 30.9766H1129.23C1130.88 27.7734 1133.58 26.1719 1137.34 26.1719C1140.05 26.1719 1142.06 26.9062 1143.39 28.375C1144.72 29.8281 1145.38 32.0703 1145.38 35.1016V52H1141.14ZM1204.89 43.3281C1204.89 46.2031 1203.84 48.4453 1201.73 50.0547C1199.63 51.6641 1196.64 52.4688 1192.75 52.4688C1185.61 52.4688 1181.46 49.6719 1180.3 44.0781L1184.64 43.2109C1185.08 45.2266 1185.98 46.6953 1187.36 47.6172C1188.73 48.5234 1190.57 48.9766 1192.87 48.9766C1195.35 48.9766 1197.23 48.4922 1198.52 47.5234C1199.81 46.5547 1200.46 45.1797 1200.46 43.3984C1200.46 42.3047 1200.2 41.4141 1199.69 40.7266C1199.19 40.0391 1198.52 39.4766 1197.7 39.0391C1196.87 38.6016 1195.93 38.25 1194.88 37.9844C1193.85 37.7031 1192.8 37.4297 1191.74 37.1641C1189.23 36.5078 1187.43 35.9219 1186.35 35.4062C1185.29 34.8906 1184.44 34.3047 1183.8 33.6484C1183.16 32.9766 1182.67 32.2109 1182.34 31.3516C1182.02 30.4922 1181.85 29.4844 1181.85 28.3281C1181.85 25.625 1182.8 23.5469 1184.69 22.0938C1186.59 20.625 1189.32 19.8906 1192.87 19.8906C1196.18 19.8906 1198.71 20.4688 1200.46 21.625C1202.21 22.7812 1203.43 24.7344 1204.12 27.4844L1199.71 28.2578C1199.34 26.5078 1198.59 25.2422 1197.46 24.4609C1196.34 23.6641 1194.8 23.2656 1192.84 23.2656C1188.42 23.2656 1186.21 24.9297 1186.21 28.2578C1186.21 29.1953 1186.41 29.9609 1186.82 30.5547C1187.24 31.1328 1187.8 31.6172 1188.51 32.0078C1189.23 32.3828 1190.05 32.6953 1190.99 32.9453C1191.95 33.1953 1192.96 33.4609 1194.04 33.7422C1196.21 34.2891 1197.77 34.75 1198.73 35.125C1199.68 35.4844 1200.52 35.8984 1201.26 36.3672C1202.01 36.8359 1202.65 37.3906 1203.18 38.0312C1203.71 38.6719 1204.12 39.4219 1204.42 40.2812C1204.73 41.1406 1204.89 42.1562 1204.89 43.3281ZM1224.74 48.6719H1233.65V52H1210.63V48.6719H1220.52V29.9688H1213.05V26.6406H1224.74V48.6719ZM1220.05 21.7188V17.2188H1224.74V21.7188H1220.05ZM1239.55 52V48.7891L1255.52 29.8984H1240.49V26.6406H1260.27V29.8516L1244.29 48.7422H1261.14V52H1239.55ZM1272.48 40.2109C1272.48 43.0547 1273.11 45.2812 1274.36 46.8906C1275.62 48.5 1277.35 49.3047 1279.54 49.3047C1281.15 49.3047 1282.55 48.9609 1283.76 48.2734C1284.98 47.5703 1285.79 46.6172 1286.2 45.4141L1289.9 46.4688C1289.21 48.4062 1287.95 49.8906 1286.1 50.9219C1284.27 51.9531 1282.09 52.4688 1279.54 52.4688C1275.85 52.4688 1273.02 51.3203 1271.03 49.0234C1269.05 46.7266 1268.05 43.4375 1268.05 39.1562C1268.05 34.9844 1269.02 31.7812 1270.96 29.5469C1272.91 27.2969 1275.73 26.1719 1279.4 26.1719C1283.07 26.1719 1285.85 27.2891 1287.74 29.5234C1289.63 31.7578 1290.58 35.1328 1290.58 39.6484V40.2109H1272.48ZM1279.45 29.2891C1277.35 29.2891 1275.7 29.9766 1274.48 31.3516C1273.26 32.7109 1272.61 34.5859 1272.53 36.9766H1286.22C1285.78 31.8516 1283.52 29.2891 1279.45 29.2891ZM1348.02 40.5156C1348.02 44.6875 1347.13 47.7266 1345.35 49.6328C1343.57 51.5234 1340.71 52.4688 1336.77 52.4688C1332.96 52.4688 1330.2 51.5547 1328.48 49.7266C1326.77 47.8828 1325.92 44.9531 1325.92 40.9375V20.3828H1330.4V40.3281C1330.4 43.5156 1330.85 45.7344 1331.76 46.9844C1332.68 48.2188 1334.34 48.8359 1336.75 48.8359C1339.27 48.8359 1341.03 48.1953 1342.05 46.9141C1343.06 45.6328 1343.57 43.3359 1343.57 40.0234V20.3828H1348.02V40.5156ZM1371.77 52V35.7109C1371.77 33.5859 1371.35 32.0078 1370.52 30.9766C1369.71 29.9453 1368.41 29.4297 1366.61 29.4297C1364.67 29.4297 1363.08 30.1406 1361.83 31.5625C1360.59 32.9688 1359.98 34.8828 1359.98 37.3047V52H1355.76V32.0547C1355.76 29.1016 1355.71 27.2969 1355.62 26.6406H1359.6C1359.62 26.7188 1359.63 26.9297 1359.65 27.2734C1359.66 27.6172 1359.68 28.0156 1359.7 28.4688C1359.73 28.9062 1359.76 29.7422 1359.79 30.9766H1359.86C1361.5 27.7734 1364.2 26.1719 1367.97 26.1719C1370.67 26.1719 1372.69 26.9062 1374.02 28.375C1375.34 29.8281 1376.01 32.0703 1376.01 35.1016V52H1371.77ZM1397.71 48.6719H1406.62V52H1383.6V48.6719H1393.49V29.9688H1386.02V26.6406H1397.71V48.6719ZM1393.02 21.7188V17.2188H1397.71V21.7188H1393.02ZM1413.53 29.9688V26.6406H1417.52L1418.88 20.0312H1421.69V26.6406H1431.81V29.9688H1421.69V45.25C1421.69 46.4844 1422.02 47.3984 1422.67 47.9922C1423.34 48.5859 1424.44 48.8828 1425.95 48.8828C1428.05 48.8828 1430.37 48.6172 1432.91 48.0859V51.2969C1430.27 52.0156 1427.66 52.375 1425.06 52.375C1422.53 52.375 1420.63 51.8438 1419.37 50.7812C1418.1 49.7031 1417.47 48.0078 1417.47 45.6953V29.9688H1413.53Z" fill="#93C5FD"/>
</svg>
