<svg width="1626" height="220" viewBox="0 0 1626 220" fill="none" xmlns="http://www.w3.org/2000/svg">
<rect x="1.5" y="75.5" width="611" height="77" stroke="#9CA3AF" stroke-width="3"/>
<path d="M25.7969 126V94.3828H47.3359V98.0391H30.2734V107.93H45.9297V111.539H30.2734V122.344H48.2969V126H25.7969ZM71.1719 126V109.711C71.1719 107.586 70.7578 106.008 69.9297 104.977C69.1172 103.945 67.8125 103.43 66.0156 103.43C64.0781 103.43 62.4844 104.141 61.2344 105.562C60 106.969 59.3828 108.883 59.3828 111.305V126H55.1641V106.055C55.1641 103.102 55.1172 101.297 55.0234 100.641H59.0078C59.0234 100.719 59.0391 100.93 59.0547 101.273C59.0703 101.617 59.0859 102.016 59.1016 102.469C59.1328 102.906 59.1641 103.742 59.1953 104.977H59.2656C60.9062 101.773 63.6094 100.172 67.375 100.172C70.0781 100.172 72.0938 100.906 73.4219 102.375C74.75 103.828 75.4141 106.07 75.4141 109.102V126H71.1719ZM84.1094 103.969V100.641H88.0938L89.4531 94.0312H92.2656V100.641H102.391V103.969H92.2656V119.25C92.2656 120.484 92.5938 121.398 93.25 121.992C93.9219 122.586 95.0156 122.883 96.5312 122.883C98.625 122.883 100.945 122.617 103.492 122.086V125.297C100.852 126.016 98.2344 126.375 95.6406 126.375C93.1094 126.375 91.2109 125.844 89.9453 124.781C88.6797 123.703 88.0469 122.008 88.0469 119.695V103.969H84.1094ZM132.977 104.484C131.227 104.188 129.57 104.039 128.008 104.039C125.492 104.039 123.461 104.984 121.914 106.875C120.367 108.766 119.594 111.172 119.594 114.094V126H115.375V109.57C115.375 108.383 115.266 106.984 115.047 105.375C114.844 103.766 114.547 102.188 114.156 100.641H118.164C118.789 102.797 119.164 104.75 119.289 106.5H119.406C120.188 104.75 120.953 103.469 121.703 102.656C122.453 101.828 123.344 101.211 124.375 100.805C125.406 100.383 126.664 100.172 128.148 100.172C129.773 100.172 131.383 100.305 132.977 100.57V104.484ZM144.156 135.961C143 135.961 142.031 135.875 141.25 135.703V132.539C141.844 132.633 142.5 132.68 143.219 132.68C144.453 132.68 145.609 132.219 146.688 131.297C147.781 130.375 148.703 128.906 149.453 126.891L149.875 125.742L138.859 100.641H143.359L149.547 115.688C150.969 119.188 151.734 121.172 151.844 121.641L152.805 119.062L160.07 100.641H164.523L153.836 126C152.445 129.672 151 132.25 149.5 133.734C148.016 135.219 146.234 135.961 144.156 135.961ZM202.797 115.125V111.375H215.922V115.125H202.797ZM279.062 117.328C279.062 120.203 278.008 122.445 275.898 124.055C273.805 125.664 270.812 126.469 266.922 126.469C259.781 126.469 255.633 123.672 254.477 118.078L258.812 117.211C259.25 119.227 260.156 120.695 261.531 121.617C262.906 122.523 264.742 122.977 267.039 122.977C269.523 122.977 271.406 122.492 272.688 121.523C273.984 120.555 274.633 119.18 274.633 117.398C274.633 116.305 274.375 115.414 273.859 114.727C273.359 114.039 272.695 113.477 271.867 113.039C271.039 112.602 270.102 112.25 269.055 111.984C268.023 111.703 266.977 111.43 265.914 111.164C263.398 110.508 261.602 109.922 260.523 109.406C259.461 108.891 258.609 108.305 257.969 107.648C257.328 106.977 256.844 106.211 256.516 105.352C256.188 104.492 256.023 103.484 256.023 102.328C256.023 99.625 256.969 97.5469 258.859 96.0938C260.766 94.625 263.492 93.8906 267.039 93.8906C270.352 93.8906 272.883 94.4688 274.633 95.625C276.383 96.7812 277.602 98.7344 278.289 101.484L273.883 102.258C273.508 100.508 272.758 99.2422 271.633 98.4609C270.508 97.6641 268.969 97.2656 267.016 97.2656C262.594 97.2656 260.383 98.9297 260.383 102.258C260.383 103.195 260.586 103.961 260.992 104.555C261.414 105.133 261.977 105.617 262.68 106.008C263.398 106.383 264.227 106.695 265.164 106.945C266.117 107.195 267.133 107.461 268.211 107.742C270.383 108.289 271.945 108.75 272.898 109.125C273.852 109.484 274.695 109.898 275.43 110.367C276.18 110.836 276.82 111.391 277.352 112.031C277.883 112.672 278.297 113.422 278.594 114.281C278.906 115.141 279.062 116.156 279.062 117.328ZM287.008 126V94.3828H291.484V122.344H307.234V126H287.008ZM365.336 103.852C365.336 105.805 364.867 107.547 363.93 109.078C363.008 110.609 361.68 111.805 359.945 112.664C358.227 113.523 356.234 113.953 353.969 113.953H347.383V126H342.906V94.3828H353.688C357.406 94.3828 360.273 95.2188 362.289 96.8906C364.32 98.5469 365.336 100.867 365.336 103.852ZM360.836 103.922C360.836 99.9531 358.273 97.9688 353.148 97.9688H347.383V110.414H353.336C355.664 110.414 357.492 109.844 358.82 108.703C360.164 107.562 360.836 105.969 360.836 103.922ZM392.43 104.484C390.68 104.188 389.023 104.039 387.461 104.039C384.945 104.039 382.914 104.984 381.367 106.875C379.82 108.766 379.047 111.172 379.047 114.094V126H374.828V109.57C374.828 108.383 374.719 106.984 374.5 105.375C374.297 103.766 374 102.188 373.609 100.641H377.617C378.242 102.797 378.617 104.75 378.742 106.5H378.859C379.641 104.75 380.406 103.469 381.156 102.656C381.906 101.828 382.797 101.211 383.828 100.805C384.859 100.383 386.117 100.172 387.602 100.172C389.227 100.172 390.836 100.305 392.43 100.57V104.484ZM414.227 122.672H423.133V126H400.117V122.672H410.008V103.969H402.531V100.641H414.227V122.672ZM409.539 95.7188V91.2188H414.227V95.7188H409.539ZM428.641 113.297C428.641 109.078 429.648 105.836 431.664 103.57C433.68 101.305 436.594 100.172 440.406 100.172C443.25 100.172 445.594 100.859 447.438 102.234C449.281 103.594 450.422 105.43 450.859 107.742L446.359 108.07C446.109 106.648 445.484 105.531 444.484 104.719C443.484 103.891 442.062 103.477 440.219 103.477C437.75 103.477 435.938 104.242 434.781 105.773C433.641 107.305 433.07 109.781 433.07 113.203C433.07 116.672 433.641 119.211 434.781 120.82C435.938 122.414 437.742 123.211 440.195 123.211C441.883 123.211 443.281 122.797 444.391 121.969C445.5 121.141 446.188 119.875 446.453 118.172L450.906 118.453C450.703 119.953 450.133 121.32 449.195 122.555C448.273 123.773 447.047 124.734 445.516 125.438C443.984 126.125 442.273 126.469 440.383 126.469C436.555 126.469 433.641 125.344 431.641 123.094C429.641 120.844 428.641 117.578 428.641 113.297ZM461.969 114.211C461.969 117.055 462.594 119.281 463.844 120.891C465.109 122.5 466.836 123.305 469.023 123.305C470.633 123.305 472.039 122.961 473.242 122.273C474.461 121.57 475.273 120.617 475.68 119.414L479.383 120.469C478.695 122.406 477.43 123.891 475.586 124.922C473.758 125.953 471.57 126.469 469.023 126.469C465.336 126.469 462.5 125.32 460.516 123.023C458.531 120.727 457.539 117.438 457.539 113.156C457.539 108.984 458.508 105.781 460.445 103.547C462.398 101.297 465.211 100.172 468.883 100.172C472.555 100.172 475.336 101.289 477.227 103.523C479.117 105.758 480.062 109.133 480.062 113.648V114.211H461.969ZM468.93 103.289C466.836 103.289 465.18 103.977 463.961 105.352C462.742 106.711 462.094 108.586 462.016 110.977H475.703C475.266 105.852 473.008 103.289 468.93 103.289ZM524.477 113.578C524.477 117.875 525.141 121.758 526.469 125.227C527.797 128.695 529.961 132.273 532.961 135.961H528.508C525.508 132.273 523.352 128.703 522.039 125.25C520.742 121.781 520.094 117.875 520.094 113.531C520.094 109.266 520.734 105.422 522.016 102C523.297 98.5625 525.461 94.9688 528.508 91.2188H532.961C529.961 94.9062 527.797 98.4922 526.469 101.977C525.141 105.445 524.477 109.312 524.477 113.578ZM546.086 126H542.688L564.531 94.2891H567.977L546.086 126ZM547.727 94.1016C552.148 94.1016 554.359 96.7266 554.359 101.977C554.359 104.586 553.789 106.57 552.648 107.93C551.508 109.289 549.836 109.969 547.633 109.969C545.43 109.969 543.758 109.297 542.617 107.953C541.477 106.609 540.906 104.617 540.906 101.977C540.906 99.3672 541.453 97.4062 542.547 96.0938C543.641 94.7656 545.367 94.1016 547.727 94.1016ZM550.914 101.977C550.914 100.117 550.664 98.7656 550.164 97.9219C549.68 97.0625 548.859 96.6328 547.703 96.6328C546.5 96.6328 545.641 97.0469 545.125 97.875C544.609 98.7031 544.352 100.07 544.352 101.977C544.352 103.789 544.609 105.133 545.125 106.008C545.641 106.883 546.492 107.32 547.68 107.32C548.789 107.32 549.602 106.891 550.117 106.031C550.648 105.156 550.914 103.805 550.914 101.977ZM563.102 110.414C567.523 110.414 569.734 113.039 569.734 118.289C569.734 120.898 569.164 122.883 568.023 124.242C566.883 125.602 565.211 126.281 563.008 126.281C560.805 126.281 559.133 125.609 557.992 124.266C556.852 122.922 556.281 120.93 556.281 118.289C556.281 115.68 556.828 113.719 557.922 112.406C559.016 111.078 560.742 110.414 563.102 110.414ZM566.289 118.289C566.289 116.43 566.039 115.078 565.539 114.234C565.055 113.375 564.234 112.945 563.078 112.945C561.875 112.945 561.016 113.359 560.5 114.188C559.984 115.016 559.727 116.383 559.727 118.289C559.727 120.102 559.984 121.445 560.5 122.32C561.016 123.195 561.867 123.633 563.055 123.633C564.164 123.633 564.977 123.203 565.492 122.344C566.023 121.469 566.289 120.117 566.289 118.289ZM590.477 113.531C590.477 117.906 589.828 121.82 588.531 125.273C587.25 128.711 585.109 132.273 582.109 135.961H577.609C580.672 132.195 582.859 128.578 584.172 125.109C585.484 121.625 586.141 117.781 586.141 113.578C586.141 109.391 585.484 105.562 584.172 102.094C582.859 98.6094 580.672 94.9844 577.609 91.2188H582.109C585.156 94.9688 587.312 98.5469 588.578 101.953C589.844 105.359 590.477 109.219 590.477 113.531Z" fill="#F1F1F1"/>
<path d="M658.938 105.938V102.469H682.258V105.938H658.938ZM658.938 117.938V114.469H682.258V117.938H658.938Z" fill="#9CA3AF"/>
<line x1="1418" y1="109" x2="783" y2="109" stroke="#9CA3AF" stroke-width="4"/>
<path d="M1496.73 98.1562L1502.91 95.7422L1503.97 98.8359L1497.36 100.547L1501.7 106.406L1498.91 108.094L1495.39 102.047L1491.73 108.047L1488.95 106.359L1493.38 100.547L1486.81 98.8359L1487.87 95.6953L1494.12 98.2031L1493.84 91.2422H1497.03L1496.73 98.1562ZM1542.34 126V122.602H1552.62V98.6719C1552.05 99.8906 1550.67 100.953 1548.5 101.859C1546.34 102.766 1544.22 103.219 1542.12 103.219V99.75C1544.44 99.75 1546.62 99.2422 1548.66 98.2266C1550.73 97.2109 1552.16 95.9297 1552.98 94.3828H1556.87V122.602H1565.14V126H1542.34ZM1593.34 110.18C1593.34 115.461 1592.36 119.5 1590.41 122.297C1588.47 125.078 1585.6 126.469 1581.8 126.469C1578.01 126.469 1575.16 125.086 1573.25 122.32C1571.34 119.539 1570.39 115.492 1570.39 110.18C1570.39 104.727 1571.32 100.648 1573.18 97.9453C1575.04 95.2422 1577.96 93.8906 1581.95 93.8906C1585.84 93.8906 1588.7 95.2578 1590.55 97.9922C1592.41 100.711 1593.34 104.773 1593.34 110.18ZM1589.05 110.18C1589.05 105.648 1588.49 102.375 1587.38 100.359C1586.29 98.3281 1584.48 97.3125 1581.95 97.3125C1579.35 97.3125 1577.48 98.3125 1576.34 100.312C1575.22 102.312 1574.66 105.602 1574.66 110.18C1574.66 114.633 1575.23 117.891 1576.37 119.953C1577.52 122 1579.35 123.023 1581.85 123.023C1584.34 123.023 1586.16 121.969 1587.31 119.859C1588.47 117.75 1589.05 114.523 1589.05 110.18ZM1579.11 112.992V107.156H1584.62V112.992H1579.11ZM1622.16 110.18C1622.16 115.461 1621.19 119.5 1619.23 122.297C1617.3 125.078 1614.43 126.469 1610.63 126.469C1606.84 126.469 1603.98 125.086 1602.08 122.32C1600.17 119.539 1599.22 115.492 1599.22 110.18C1599.22 104.727 1600.15 100.648 1602.01 97.9453C1603.87 95.2422 1606.79 93.8906 1610.77 93.8906C1614.66 93.8906 1617.53 95.2578 1619.38 97.9922C1621.23 100.711 1622.16 104.773 1622.16 110.18ZM1617.88 110.18C1617.88 105.648 1617.32 102.375 1616.21 100.359C1615.12 98.3281 1613.3 97.3125 1610.77 97.3125C1608.18 97.3125 1606.31 98.3125 1605.17 100.312C1604.05 102.312 1603.48 105.602 1603.48 110.18C1603.48 114.633 1604.05 117.891 1605.2 119.953C1606.35 122 1608.18 123.023 1610.68 123.023C1613.16 123.023 1614.98 121.969 1616.14 119.859C1617.3 117.75 1617.88 114.523 1617.88 110.18ZM1607.94 112.992V107.156H1613.45V112.992H1607.94Z" fill="#9CA3AF"/>
<rect x="878.5" y="1.5" width="447" height="77" stroke="#9CA3AF" stroke-width="3"/>
<path d="M921.43 52L912.852 38.5234H907.273V52H902.797V20.3828H914.094C917.734 20.3828 920.508 21.1406 922.414 22.6562C924.32 24.1562 925.273 26.3125 925.273 29.125C925.273 31.4531 924.539 33.4141 923.07 35.0078C921.617 36.6016 919.664 37.6016 917.211 38.0078L926.586 52H921.43ZM920.773 29.1953C920.773 25.7109 918.398 23.9688 913.648 23.9688H907.273V34.9844H913.836C916.07 34.9844 917.781 34.4844 918.969 33.4844C920.172 32.4844 920.773 31.0547 920.773 29.1953ZM945.289 48.6719H954.195V52H931.18V48.6719H941.07V29.9688H933.594V26.6406H945.289V48.6719ZM940.602 21.7188V17.2188H945.289V21.7188H940.602ZM981.5 44.7578C981.5 47.1641 980.586 49.0547 978.758 50.4297C976.945 51.7891 974.43 52.4688 971.211 52.4688C967.992 52.4688 965.539 51.9688 963.852 50.9688C962.18 49.9531 961.086 48.3594 960.57 46.1875L964.297 45.4609C964.594 46.8047 965.227 47.7891 966.195 48.4141C967.18 49.0234 968.852 49.3281 971.211 49.3281C975.43 49.3281 977.539 47.9922 977.539 45.3203C977.539 44.3203 977.156 43.5156 976.391 42.9062C975.625 42.2812 974.453 41.7734 972.875 41.3828C968.75 40.3672 966.133 39.5703 965.023 38.9922C963.914 38.4141 963.062 37.6953 962.469 36.8359C961.875 35.9609 961.578 34.875 961.578 33.5781C961.578 31.2812 962.406 29.4844 964.062 28.1875C965.719 26.8906 968.117 26.2422 971.258 26.2422C974.008 26.2422 976.203 26.7656 977.844 27.8125C979.484 28.8438 980.508 30.3516 980.914 32.3359L977.117 32.8047C976.945 31.6797 976.391 30.8281 975.453 30.25C974.516 29.6719 973.117 29.3828 971.258 29.3828C967.43 29.3828 965.516 30.5625 965.516 32.9219C965.516 33.8594 965.836 34.6094 966.477 35.1719C967.133 35.7344 968.18 36.1875 969.617 36.5312L972.406 37.2578C974.953 37.8828 976.781 38.5 977.891 39.1094C979.016 39.7188 979.898 40.4844 980.539 41.4062C981.18 42.3125 981.5 43.4297 981.5 44.7578ZM1006.91 52L998.328 40.3047L995.234 42.6016V52H991.016V17.2188H995.234V38.9453L1006.37 26.6406H1011.31L1001.02 37.5391L1011.85 52H1006.91ZM1068.69 39.2031C1068.69 48.0469 1065.62 52.4688 1059.5 52.4688C1055.66 52.4688 1053.07 51.0312 1051.74 48.1562H1051.62C1051.69 48.2812 1051.72 49.5781 1051.72 52.0469V61.9609H1047.48V31.8906C1047.48 29.2344 1047.43 27.4844 1047.34 26.6406H1051.44C1051.45 26.7031 1051.48 26.9375 1051.51 27.3438C1051.54 27.7344 1051.57 28.3203 1051.6 29.1016C1051.65 29.8672 1051.67 30.4375 1051.67 30.8125H1051.77C1052.55 29.1719 1053.54 27.9844 1054.74 27.25C1055.96 26.5 1057.55 26.125 1059.5 26.125C1062.59 26.125 1064.9 27.1953 1066.41 29.3359C1067.93 31.4609 1068.69 34.75 1068.69 39.2031ZM1064.33 39.2031C1064.33 35.6719 1063.85 33.1562 1062.9 31.6562C1061.95 30.1406 1060.45 29.3828 1058.4 29.3828C1056.04 29.3828 1054.34 30.2422 1053.29 31.9609C1052.24 33.6641 1051.72 36.25 1051.72 39.7188C1051.72 43.0469 1052.24 45.4844 1053.29 47.0312C1054.34 48.5781 1056.02 49.3516 1058.35 49.3516C1060.43 49.3516 1061.95 48.5625 1062.9 46.9844C1063.85 45.4062 1064.33 42.8125 1064.33 39.2031ZM1079.52 40.2109C1079.52 43.0547 1080.14 45.2812 1081.39 46.8906C1082.66 48.5 1084.38 49.3047 1086.57 49.3047C1088.18 49.3047 1089.59 48.9609 1090.79 48.2734C1092.01 47.5703 1092.82 46.6172 1093.23 45.4141L1096.93 46.4688C1096.24 48.4062 1094.98 49.8906 1093.13 50.9219C1091.3 51.9531 1089.12 52.4688 1086.57 52.4688C1082.88 52.4688 1080.05 51.3203 1078.06 49.0234C1076.08 46.7266 1075.09 43.4375 1075.09 39.1562C1075.09 34.9844 1076.05 31.7812 1077.99 29.5469C1079.95 27.2969 1082.76 26.1719 1086.43 26.1719C1090.1 26.1719 1092.88 27.2891 1094.77 29.5234C1096.66 31.7578 1097.61 35.1328 1097.61 39.6484V40.2109H1079.52ZM1086.48 29.2891C1084.38 29.2891 1082.73 29.9766 1081.51 31.3516C1080.29 32.7109 1079.64 34.5859 1079.56 36.9766H1093.25C1092.81 31.8516 1090.55 29.2891 1086.48 29.2891ZM1125.29 30.4844C1123.54 30.1875 1121.88 30.0391 1120.32 30.0391C1117.8 30.0391 1115.77 30.9844 1114.23 32.875C1112.68 34.7656 1111.91 37.1719 1111.91 40.0938V52H1107.69V35.5703C1107.69 34.3828 1107.58 32.9844 1107.36 31.375C1107.16 29.7656 1106.86 28.1875 1106.47 26.6406H1110.48C1111.1 28.7969 1111.48 30.75 1111.6 32.5H1111.72C1112.5 30.75 1113.27 29.4688 1114.02 28.6562C1114.77 27.8281 1115.66 27.2109 1116.69 26.8047C1117.72 26.3828 1118.98 26.1719 1120.46 26.1719C1122.09 26.1719 1123.7 26.3047 1125.29 26.5703V30.4844ZM1175.07 24.0391V52H1170.62V24.0391H1160.23V20.3828H1185.45V24.0391H1175.07ZM1211.77 30.4844C1210.02 30.1875 1208.37 30.0391 1206.8 30.0391C1204.29 30.0391 1202.26 30.9844 1200.71 32.875C1199.16 34.7656 1198.39 37.1719 1198.39 40.0938V52H1194.17V35.5703C1194.17 34.3828 1194.06 32.9844 1193.84 31.375C1193.64 29.7656 1193.34 28.1875 1192.95 26.6406H1196.96C1197.59 28.7969 1197.96 30.75 1198.09 32.5H1198.2C1198.98 30.75 1199.75 29.4688 1200.5 28.6562C1201.25 27.8281 1202.14 27.2109 1203.17 26.8047C1204.2 26.3828 1205.46 26.1719 1206.95 26.1719C1208.57 26.1719 1210.18 26.3047 1211.77 26.5703V30.4844ZM1241.91 49.3984C1242.32 49.3984 1242.78 49.3438 1243.3 49.2344V51.8594C1242.23 52.1094 1241.15 52.2344 1240.04 52.2344C1238.48 52.2344 1237.34 51.8281 1236.62 51.0156C1235.91 50.1875 1235.52 48.8984 1235.42 47.1484H1235.28C1234.27 49.0391 1233.06 50.3984 1231.67 51.2266C1230.3 52.0547 1228.59 52.4688 1226.56 52.4688C1224.09 52.4688 1222.23 51.7969 1220.98 50.4531C1219.73 49.1094 1219.11 47.2656 1219.11 44.9219C1219.11 39.4688 1222.66 36.7031 1229.75 36.625L1235.28 36.5312V35.1484C1235.28 33.1016 1234.87 31.6328 1234.04 30.7422C1233.21 29.8359 1231.89 29.3828 1230.08 29.3828C1228.23 29.3828 1226.91 29.7109 1226.09 30.3672C1225.28 31.0234 1224.8 32.0391 1224.64 33.4141L1220.23 33.0156C1220.95 28.4531 1224.26 26.1719 1230.15 26.1719C1233.27 26.1719 1235.62 26.9062 1237.18 28.375C1238.76 29.8281 1239.55 31.9375 1239.55 34.7031V45.625C1239.55 46.875 1239.71 47.8203 1240.04 48.4609C1240.37 49.0859 1240.99 49.3984 1241.91 49.3984ZM1227.64 49.2578C1229.14 49.2578 1230.47 48.8984 1231.62 48.1797C1232.78 47.4609 1233.68 46.5 1234.32 45.2969C1234.96 44.0938 1235.28 42.8516 1235.28 41.5703V39.4844L1230.83 39.5781C1228.98 39.6094 1227.58 39.8125 1226.61 40.1875C1225.64 40.5625 1224.88 41.1406 1224.34 41.9219C1223.8 42.6875 1223.54 43.7109 1223.54 44.9922C1223.54 46.2734 1223.88 47.3047 1224.57 48.0859C1225.27 48.8672 1226.3 49.2578 1227.64 49.2578ZM1265.14 47.9219C1264.38 49.5625 1263.36 50.7578 1262.09 51.5078C1260.83 52.2422 1259.25 52.6094 1257.36 52.6094C1254.2 52.6094 1251.88 51.5234 1250.4 49.3516C1248.91 47.1797 1248.17 43.9062 1248.17 39.5312C1248.17 30.6875 1251.23 26.2656 1257.36 26.2656C1259.25 26.2656 1260.83 26.6016 1262.09 27.2734C1263.38 27.9453 1264.4 29.0469 1265.16 30.5781H1265.21L1265.16 27.0391V17.2188H1269.38V46.7734C1269.38 49.4141 1269.43 51.1562 1269.52 52H1265.49C1265.43 51.7656 1265.38 51.1953 1265.33 50.2891C1265.28 49.3828 1265.26 48.5938 1265.26 47.9219H1265.14ZM1252.53 39.3906C1252.53 42.8594 1252.99 45.3906 1253.91 46.9844C1254.85 48.5625 1256.37 49.3516 1258.46 49.3516C1260.74 49.3516 1262.43 48.5312 1263.52 46.8906C1264.62 45.2344 1265.16 42.6094 1265.16 39.0156C1265.16 35.6562 1264.63 33.2109 1263.57 31.6797C1262.52 30.1484 1260.84 29.3828 1258.51 29.3828C1256.4 29.3828 1254.88 30.1875 1253.94 31.7969C1253 33.4062 1252.53 35.9375 1252.53 39.3906ZM1281.31 40.2109C1281.31 43.0547 1281.94 45.2812 1283.19 46.8906C1284.45 48.5 1286.18 49.3047 1288.37 49.3047C1289.98 49.3047 1291.38 48.9609 1292.59 48.2734C1293.8 47.5703 1294.62 46.6172 1295.02 45.4141L1298.73 46.4688C1298.04 48.4062 1296.77 49.8906 1294.93 50.9219C1293.1 51.9531 1290.91 52.4688 1288.37 52.4688C1284.68 52.4688 1281.84 51.3203 1279.86 49.0234C1277.88 46.7266 1276.88 43.4375 1276.88 39.1562C1276.88 34.9844 1277.85 31.7812 1279.79 29.5469C1281.74 27.2969 1284.55 26.1719 1288.23 26.1719C1291.9 26.1719 1294.68 27.2891 1296.57 29.5234C1298.46 31.7578 1299.41 35.1328 1299.41 39.6484V40.2109H1281.31ZM1288.27 29.2891C1286.18 29.2891 1284.52 29.9766 1283.3 31.3516C1282.09 32.7109 1281.44 34.5859 1281.36 36.9766H1295.05C1294.61 31.8516 1292.35 29.2891 1288.27 29.2891Z" fill="#FCA5A5"/>
<rect x="727.5" y="141.5" width="727" height="77" stroke="#9CA3AF" stroke-width="3"/>
<path d="M774.227 169.852C774.227 171.805 773.758 173.547 772.82 175.078C771.898 176.609 770.57 177.805 768.836 178.664C767.117 179.523 765.125 179.953 762.859 179.953H756.273V192H751.797V160.383H762.578C766.297 160.383 769.164 161.219 771.18 162.891C773.211 164.547 774.227 166.867 774.227 169.852ZM769.727 169.922C769.727 165.953 767.164 163.969 762.039 163.969H756.273V176.414H762.227C764.555 176.414 766.383 175.844 767.711 174.703C769.055 173.562 769.727 171.969 769.727 169.922ZM802.539 179.297C802.539 183.562 801.555 186.828 799.586 189.094C797.633 191.344 794.805 192.469 791.102 192.469C787.477 192.469 784.695 191.328 782.758 189.047C780.836 186.766 779.875 183.516 779.875 179.297C779.875 174.938 780.859 171.664 782.828 169.477C784.812 167.273 787.617 166.172 791.242 166.172C795.055 166.172 797.891 167.258 799.75 169.43C801.609 171.602 802.539 174.891 802.539 179.297ZM798.109 179.297C798.109 175.938 797.57 173.43 796.492 171.773C795.43 170.117 793.703 169.289 791.312 169.289C788.891 169.289 787.117 170.133 785.992 171.82C784.867 173.508 784.305 176 784.305 179.297C784.305 182.578 784.867 185.078 785.992 186.797C787.117 188.5 788.805 189.352 791.055 189.352C793.539 189.352 795.336 188.516 796.445 186.844C797.555 185.172 798.109 182.656 798.109 179.297ZM830.5 184.758C830.5 187.164 829.586 189.055 827.758 190.43C825.945 191.789 823.43 192.469 820.211 192.469C816.992 192.469 814.539 191.969 812.852 190.969C811.18 189.953 810.086 188.359 809.57 186.188L813.297 185.461C813.594 186.805 814.227 187.789 815.195 188.414C816.18 189.023 817.852 189.328 820.211 189.328C824.43 189.328 826.539 187.992 826.539 185.32C826.539 184.32 826.156 183.516 825.391 182.906C824.625 182.281 823.453 181.773 821.875 181.383C817.75 180.367 815.133 179.57 814.023 178.992C812.914 178.414 812.062 177.695 811.469 176.836C810.875 175.961 810.578 174.875 810.578 173.578C810.578 171.281 811.406 169.484 813.062 168.188C814.719 166.891 817.117 166.242 820.258 166.242C823.008 166.242 825.203 166.766 826.844 167.812C828.484 168.844 829.508 170.352 829.914 172.336L826.117 172.805C825.945 171.68 825.391 170.828 824.453 170.25C823.516 169.672 822.117 169.383 820.258 169.383C816.43 169.383 814.516 170.562 814.516 172.922C814.516 173.859 814.836 174.609 815.477 175.172C816.133 175.734 817.18 176.188 818.617 176.531L821.406 177.258C823.953 177.883 825.781 178.5 826.891 179.109C828.016 179.719 828.898 180.484 829.539 181.406C830.18 182.312 830.5 183.43 830.5 184.758ZM851.945 188.672H860.852V192H837.836V188.672H847.727V169.969H840.25V166.641H851.945V188.672ZM847.258 161.719V157.219H851.945V161.719H847.258ZM867.766 169.969V166.641H871.75L873.109 160.031H875.922V166.641H886.047V169.969H875.922V185.25C875.922 186.484 876.25 187.398 876.906 187.992C877.578 188.586 878.672 188.883 880.188 188.883C882.281 188.883 884.602 188.617 887.148 188.086V191.297C884.508 192.016 881.891 192.375 879.297 192.375C876.766 192.375 874.867 191.844 873.602 190.781C872.336 189.703 871.703 188.008 871.703 185.695V169.969H867.766ZM909.602 188.672H918.508V192H895.492V188.672H905.383V169.969H897.906V166.641H909.602V188.672ZM904.914 161.719V157.219H909.602V161.719H904.914ZM946.68 179.297C946.68 183.562 945.695 186.828 943.727 189.094C941.773 191.344 938.945 192.469 935.242 192.469C931.617 192.469 928.836 191.328 926.898 189.047C924.977 186.766 924.016 183.516 924.016 179.297C924.016 174.938 925 171.664 926.969 169.477C928.953 167.273 931.758 166.172 935.383 166.172C939.195 166.172 942.031 167.258 943.891 169.43C945.75 171.602 946.68 174.891 946.68 179.297ZM942.25 179.297C942.25 175.938 941.711 173.43 940.633 171.773C939.57 170.117 937.844 169.289 935.453 169.289C933.031 169.289 931.258 170.133 930.133 171.82C929.008 173.508 928.445 176 928.445 179.297C928.445 182.578 929.008 185.078 930.133 186.797C931.258 188.5 932.945 189.352 935.195 189.352C937.68 189.352 939.477 188.516 940.586 186.844C941.695 185.172 942.25 182.656 942.25 179.297ZM970.141 192V175.711C970.141 173.586 969.727 172.008 968.898 170.977C968.086 169.945 966.781 169.43 964.984 169.43C963.047 169.43 961.453 170.141 960.203 171.562C958.969 172.969 958.352 174.883 958.352 177.305V192H954.133V172.055C954.133 169.102 954.086 167.297 953.992 166.641H957.977C957.992 166.719 958.008 166.93 958.023 167.273C958.039 167.617 958.055 168.016 958.07 168.469C958.102 168.906 958.133 169.742 958.164 170.977H958.234C959.875 167.773 962.578 166.172 966.344 166.172C969.047 166.172 971.062 166.906 972.391 168.375C973.719 169.828 974.383 172.07 974.383 175.102V192H970.141ZM1033.89 183.328C1033.89 186.203 1032.84 188.445 1030.73 190.055C1028.63 191.664 1025.64 192.469 1021.75 192.469C1014.61 192.469 1010.46 189.672 1009.3 184.078L1013.64 183.211C1014.08 185.227 1014.98 186.695 1016.36 187.617C1017.73 188.523 1019.57 188.977 1021.87 188.977C1024.35 188.977 1026.23 188.492 1027.52 187.523C1028.81 186.555 1029.46 185.18 1029.46 183.398C1029.46 182.305 1029.2 181.414 1028.69 180.727C1028.19 180.039 1027.52 179.477 1026.7 179.039C1025.87 178.602 1024.93 178.25 1023.88 177.984C1022.85 177.703 1021.8 177.43 1020.74 177.164C1018.23 176.508 1016.43 175.922 1015.35 175.406C1014.29 174.891 1013.44 174.305 1012.8 173.648C1012.16 172.977 1011.67 172.211 1011.34 171.352C1011.02 170.492 1010.85 169.484 1010.85 168.328C1010.85 165.625 1011.8 163.547 1013.69 162.094C1015.59 160.625 1018.32 159.891 1021.87 159.891C1025.18 159.891 1027.71 160.469 1029.46 161.625C1031.21 162.781 1032.43 164.734 1033.12 167.484L1028.71 168.258C1028.34 166.508 1027.59 165.242 1026.46 164.461C1025.34 163.664 1023.8 163.266 1021.84 163.266C1017.42 163.266 1015.21 164.93 1015.21 168.258C1015.21 169.195 1015.41 169.961 1015.82 170.555C1016.24 171.133 1016.8 171.617 1017.51 172.008C1018.23 172.383 1019.05 172.695 1019.99 172.945C1020.95 173.195 1021.96 173.461 1023.04 173.742C1025.21 174.289 1026.77 174.75 1027.73 175.125C1028.68 175.484 1029.52 175.898 1030.26 176.367C1031.01 176.836 1031.65 177.391 1032.18 178.031C1032.71 178.672 1033.12 179.422 1033.42 180.281C1033.73 181.141 1033.89 182.156 1033.89 183.328ZM1053.74 188.672H1062.65V192H1039.63V188.672H1049.52V169.969H1042.05V166.641H1053.74V188.672ZM1049.05 161.719V157.219H1053.74V161.719H1049.05ZM1068.55 192V188.789L1084.52 169.898H1069.49V166.641H1089.27V169.852L1073.29 188.742H1090.14V192H1068.55ZM1101.48 180.211C1101.48 183.055 1102.11 185.281 1103.36 186.891C1104.62 188.5 1106.35 189.305 1108.54 189.305C1110.15 189.305 1111.55 188.961 1112.76 188.273C1113.98 187.57 1114.79 186.617 1115.2 185.414L1118.9 186.469C1118.21 188.406 1116.95 189.891 1115.1 190.922C1113.27 191.953 1111.09 192.469 1108.54 192.469C1104.85 192.469 1102.02 191.32 1100.03 189.023C1098.05 186.727 1097.05 183.438 1097.05 179.156C1097.05 174.984 1098.02 171.781 1099.96 169.547C1101.91 167.297 1104.73 166.172 1108.4 166.172C1112.07 166.172 1114.85 167.289 1116.74 169.523C1118.63 171.758 1119.58 175.133 1119.58 179.648V180.211H1101.48ZM1108.45 169.289C1106.35 169.289 1104.7 169.977 1103.48 171.352C1102.26 172.711 1101.61 174.586 1101.53 176.977H1115.22C1114.78 171.852 1112.52 169.289 1108.45 169.289ZM1177.02 180.516C1177.02 184.688 1176.13 187.727 1174.35 189.633C1172.57 191.523 1169.71 192.469 1165.77 192.469C1161.96 192.469 1159.2 191.555 1157.48 189.727C1155.77 187.883 1154.92 184.953 1154.92 180.938V160.383H1159.4V180.328C1159.4 183.516 1159.85 185.734 1160.76 186.984C1161.68 188.219 1163.34 188.836 1165.75 188.836C1168.27 188.836 1170.03 188.195 1171.05 186.914C1172.06 185.633 1172.57 183.336 1172.57 180.023V160.383H1177.02V180.516ZM1200.77 192V175.711C1200.77 173.586 1200.35 172.008 1199.52 170.977C1198.71 169.945 1197.41 169.43 1195.61 169.43C1193.67 169.43 1192.08 170.141 1190.83 171.562C1189.59 172.969 1188.98 174.883 1188.98 177.305V192H1184.76V172.055C1184.76 169.102 1184.71 167.297 1184.62 166.641H1188.6C1188.62 166.719 1188.63 166.93 1188.65 167.273C1188.66 167.617 1188.68 168.016 1188.7 168.469C1188.73 168.906 1188.76 169.742 1188.79 170.977H1188.86C1190.5 167.773 1193.2 166.172 1196.97 166.172C1199.67 166.172 1201.69 166.906 1203.02 168.375C1204.34 169.828 1205.01 172.07 1205.01 175.102V192H1200.77ZM1226.71 188.672H1235.62V192H1212.6V188.672H1222.49V169.969H1215.02V166.641H1226.71V188.672ZM1222.02 161.719V157.219H1226.71V161.719H1222.02ZM1242.53 169.969V166.641H1246.52L1247.88 160.031H1250.69V166.641H1260.81V169.969H1250.69V185.25C1250.69 186.484 1251.02 187.398 1251.67 187.992C1252.34 188.586 1253.44 188.883 1254.95 188.883C1257.05 188.883 1259.37 188.617 1261.91 188.086V191.297C1259.27 192.016 1256.66 192.375 1254.06 192.375C1251.53 192.375 1249.63 191.844 1248.37 190.781C1247.1 189.703 1246.47 188.008 1246.47 185.695V169.969H1242.53ZM1308.13 179.578C1308.13 183.875 1308.8 187.758 1310.12 191.227C1311.45 194.695 1313.62 198.273 1316.62 201.961H1312.16C1309.16 198.273 1307.01 194.703 1305.7 191.25C1304.4 187.781 1303.75 183.875 1303.75 179.531C1303.75 175.266 1304.39 171.422 1305.67 168C1306.95 164.562 1309.12 160.969 1312.16 157.219H1316.62C1313.62 160.906 1311.45 164.492 1310.12 167.977C1308.8 171.445 1308.13 175.312 1308.13 179.578ZM1349.99 180.516C1349.99 184.688 1349.1 187.727 1347.32 189.633C1345.54 191.523 1342.68 192.469 1338.74 192.469C1334.93 192.469 1332.16 191.555 1330.45 189.727C1328.74 187.883 1327.89 184.953 1327.89 180.938V160.383H1332.37V180.328C1332.37 183.516 1332.82 185.734 1333.73 186.984C1334.65 188.219 1336.31 188.836 1338.72 188.836C1341.23 188.836 1343 188.195 1344.02 186.914C1345.03 185.633 1345.54 183.336 1345.54 180.023V160.383H1349.99V180.516ZM1379.83 183.328C1379.83 186.203 1378.77 188.445 1376.66 190.055C1374.57 191.664 1371.58 192.469 1367.69 192.469C1360.55 192.469 1356.4 189.672 1355.24 184.078L1359.58 183.211C1360.02 185.227 1360.92 186.695 1362.3 187.617C1363.67 188.523 1365.51 188.977 1367.8 188.977C1370.29 188.977 1372.17 188.492 1373.45 187.523C1374.75 186.555 1375.4 185.18 1375.4 183.398C1375.4 182.305 1375.14 181.414 1374.62 180.727C1374.12 180.039 1373.46 179.477 1372.63 179.039C1371.8 178.602 1370.87 178.25 1369.82 177.984C1368.79 177.703 1367.74 177.43 1366.68 177.164C1364.16 176.508 1362.37 175.922 1361.29 175.406C1360.23 174.891 1359.38 174.305 1358.73 173.648C1358.09 172.977 1357.61 172.211 1357.28 171.352C1356.95 170.492 1356.79 169.484 1356.79 168.328C1356.79 165.625 1357.73 163.547 1359.62 162.094C1361.53 160.625 1364.26 159.891 1367.8 159.891C1371.12 159.891 1373.65 160.469 1375.4 161.625C1377.15 162.781 1378.37 164.734 1379.05 167.484L1374.65 168.258C1374.27 166.508 1373.52 165.242 1372.4 164.461C1371.27 163.664 1369.73 163.266 1367.78 163.266C1363.36 163.266 1361.15 164.93 1361.15 168.258C1361.15 169.195 1361.35 169.961 1361.76 170.555C1362.18 171.133 1362.74 171.617 1363.45 172.008C1364.16 172.383 1364.99 172.695 1365.93 172.945C1366.88 173.195 1367.9 173.461 1368.98 173.742C1371.15 174.289 1372.71 174.75 1373.66 175.125C1374.62 175.484 1375.46 175.898 1376.2 176.367C1376.95 176.836 1377.59 177.391 1378.12 178.031C1378.65 178.672 1379.06 179.422 1379.36 180.281C1379.67 181.141 1379.83 182.156 1379.83 183.328ZM1408.59 175.875C1408.59 181.047 1407.38 185.031 1404.98 187.828C1402.59 190.609 1399.16 192 1394.69 192H1386.02V160.383H1393.3C1398.45 160.383 1402.27 161.672 1404.79 164.25C1407.32 166.812 1408.59 170.688 1408.59 175.875ZM1404.09 175.875C1404.09 171.75 1403.23 168.75 1401.51 166.875C1399.79 164.984 1397.06 164.039 1393.33 164.039H1390.49V188.344H1394.29C1397.6 188.344 1400.06 187.305 1401.67 185.227C1403.28 183.148 1404.09 180.031 1404.09 175.875ZM1431.79 179.531C1431.79 183.906 1431.14 187.82 1429.84 191.273C1428.56 194.711 1426.42 198.273 1423.42 201.961H1418.92C1421.98 198.195 1424.17 194.578 1425.48 191.109C1426.8 187.625 1427.45 183.781 1427.45 179.578C1427.45 175.391 1426.8 171.562 1425.48 168.094C1424.17 164.609 1421.98 160.984 1418.92 157.219H1423.42C1426.47 160.969 1428.62 164.547 1429.89 167.953C1431.16 171.359 1431.79 175.219 1431.79 179.531Z" fill="#86EFAC"/>
</svg>
