<svg width="1379" height="226" viewBox="0 0 1379 226" fill="none" xmlns="http://www.w3.org/2000/svg">
<rect x="1.5" y="81.5" width="562" height="77" stroke="#9CA3AF" stroke-width="3"/>
<path d="M48.2266 109.852C48.2266 111.805 47.7578 113.547 46.8203 115.078C45.8984 116.609 44.5703 117.805 42.8359 118.664C41.1172 119.523 39.125 119.953 36.8594 119.953H30.2734V132H25.7969V100.383H36.5781C40.2969 100.383 43.1641 101.219 45.1797 102.891C47.2109 104.547 48.2266 106.867 48.2266 109.852ZM43.7266 109.922C43.7266 105.953 41.1641 103.969 36.0391 103.969H30.2734V116.414H36.2266C38.5547 116.414 40.3828 115.844 41.7109 114.703C43.0547 113.562 43.7266 111.969 43.7266 109.922ZM76.5391 119.297C76.5391 123.562 75.5547 126.828 73.5859 129.094C71.6328 131.344 68.8047 132.469 65.1016 132.469C61.4766 132.469 58.6953 131.328 56.7578 129.047C54.8359 126.766 53.875 123.516 53.875 119.297C53.875 114.938 54.8594 111.664 56.8281 109.477C58.8125 107.273 61.6172 106.172 65.2422 106.172C69.0547 106.172 71.8906 107.258 73.75 109.43C75.6094 111.602 76.5391 114.891 76.5391 119.297ZM72.1094 119.297C72.1094 115.938 71.5703 113.43 70.4922 111.773C69.4297 110.117 67.7031 109.289 65.3125 109.289C62.8906 109.289 61.1172 110.133 59.9922 111.82C58.8672 113.508 58.3047 116 58.3047 119.297C58.3047 122.578 58.8672 125.078 59.9922 126.797C61.1172 128.5 62.8047 129.352 65.0547 129.352C67.5391 129.352 69.3359 128.516 70.4453 126.844C71.5547 125.172 72.1094 122.656 72.1094 119.297ZM104.5 124.758C104.5 127.164 103.586 129.055 101.758 130.43C99.9453 131.789 97.4297 132.469 94.2109 132.469C90.9922 132.469 88.5391 131.969 86.8516 130.969C85.1797 129.953 84.0859 128.359 83.5703 126.188L87.2969 125.461C87.5938 126.805 88.2266 127.789 89.1953 128.414C90.1797 129.023 91.8516 129.328 94.2109 129.328C98.4297 129.328 100.539 127.992 100.539 125.32C100.539 124.32 100.156 123.516 99.3906 122.906C98.625 122.281 97.4531 121.773 95.875 121.383C91.75 120.367 89.1328 119.57 88.0234 118.992C86.9141 118.414 86.0625 117.695 85.4688 116.836C84.875 115.961 84.5781 114.875 84.5781 113.578C84.5781 111.281 85.4062 109.484 87.0625 108.188C88.7188 106.891 91.1172 106.242 94.2578 106.242C97.0078 106.242 99.2031 106.766 100.844 107.812C102.484 108.844 103.508 110.352 103.914 112.336L100.117 112.805C99.9453 111.68 99.3906 110.828 98.4531 110.25C97.5156 109.672 96.1172 109.383 94.2578 109.383C90.4297 109.383 88.5156 110.562 88.5156 112.922C88.5156 113.859 88.8359 114.609 89.4766 115.172C90.1328 115.734 91.1797 116.188 92.6172 116.531L95.4062 117.258C97.9531 117.883 99.7812 118.5 100.891 119.109C102.016 119.719 102.898 120.484 103.539 121.406C104.18 122.312 104.5 123.43 104.5 124.758ZM125.945 128.672H134.852V132H111.836V128.672H121.727V109.969H114.25V106.641H125.945V128.672ZM121.258 101.719V97.2188H125.945V101.719H121.258ZM141.766 109.969V106.641H145.75L147.109 100.031H149.922V106.641H160.047V109.969H149.922V125.25C149.922 126.484 150.25 127.398 150.906 127.992C151.578 128.586 152.672 128.883 154.188 128.883C156.281 128.883 158.602 128.617 161.148 128.086V131.297C158.508 132.016 155.891 132.375 153.297 132.375C150.766 132.375 148.867 131.844 147.602 130.781C146.336 129.703 145.703 128.008 145.703 125.695V109.969H141.766ZM183.602 128.672H192.508V132H169.492V128.672H179.383V109.969H171.906V106.641H183.602V128.672ZM178.914 101.719V97.2188H183.602V101.719H178.914ZM220.68 119.297C220.68 123.562 219.695 126.828 217.727 129.094C215.773 131.344 212.945 132.469 209.242 132.469C205.617 132.469 202.836 131.328 200.898 129.047C198.977 126.766 198.016 123.516 198.016 119.297C198.016 114.938 199 111.664 200.969 109.477C202.953 107.273 205.758 106.172 209.383 106.172C213.195 106.172 216.031 107.258 217.891 109.43C219.75 111.602 220.68 114.891 220.68 119.297ZM216.25 119.297C216.25 115.938 215.711 113.43 214.633 111.773C213.57 110.117 211.844 109.289 209.453 109.289C207.031 109.289 205.258 110.133 204.133 111.82C203.008 113.508 202.445 116 202.445 119.297C202.445 122.578 203.008 125.078 204.133 126.797C205.258 128.5 206.945 129.352 209.195 129.352C211.68 129.352 213.477 128.516 214.586 126.844C215.695 125.172 216.25 122.656 216.25 119.297ZM244.141 132V115.711C244.141 113.586 243.727 112.008 242.898 110.977C242.086 109.945 240.781 109.43 238.984 109.43C237.047 109.43 235.453 110.141 234.203 111.562C232.969 112.969 232.352 114.883 232.352 117.305V132H228.133V112.055C228.133 109.102 228.086 107.297 227.992 106.641H231.977C231.992 106.719 232.008 106.93 232.023 107.273C232.039 107.617 232.055 108.016 232.07 108.469C232.102 108.906 232.133 109.742 232.164 110.977H232.234C233.875 107.773 236.578 106.172 240.344 106.172C243.047 106.172 245.062 106.906 246.391 108.375C247.719 109.828 248.383 112.07 248.383 115.102V132H244.141ZM307.891 123.328C307.891 126.203 306.836 128.445 304.727 130.055C302.633 131.664 299.641 132.469 295.75 132.469C288.609 132.469 284.461 129.672 283.305 124.078L287.641 123.211C288.078 125.227 288.984 126.695 290.359 127.617C291.734 128.523 293.57 128.977 295.867 128.977C298.352 128.977 300.234 128.492 301.516 127.523C302.812 126.555 303.461 125.18 303.461 123.398C303.461 122.305 303.203 121.414 302.688 120.727C302.188 120.039 301.523 119.477 300.695 119.039C299.867 118.602 298.93 118.25 297.883 117.984C296.852 117.703 295.805 117.43 294.742 117.164C292.227 116.508 290.43 115.922 289.352 115.406C288.289 114.891 287.438 114.305 286.797 113.648C286.156 112.977 285.672 112.211 285.344 111.352C285.016 110.492 284.852 109.484 284.852 108.328C284.852 105.625 285.797 103.547 287.688 102.094C289.594 100.625 292.32 99.8906 295.867 99.8906C299.18 99.8906 301.711 100.469 303.461 101.625C305.211 102.781 306.43 104.734 307.117 107.484L302.711 108.258C302.336 106.508 301.586 105.242 300.461 104.461C299.336 103.664 297.797 103.266 295.844 103.266C291.422 103.266 289.211 104.93 289.211 108.258C289.211 109.195 289.414 109.961 289.82 110.555C290.242 111.133 290.805 111.617 291.508 112.008C292.227 112.383 293.055 112.695 293.992 112.945C294.945 113.195 295.961 113.461 297.039 113.742C299.211 114.289 300.773 114.75 301.727 115.125C302.68 115.484 303.523 115.898 304.258 116.367C305.008 116.836 305.648 117.391 306.18 118.031C306.711 118.672 307.125 119.422 307.422 120.281C307.734 121.141 307.891 122.156 307.891 123.328ZM327.742 128.672H336.648V132H313.633V128.672H323.523V109.969H316.047V106.641H327.742V128.672ZM323.055 101.719V97.2188H327.742V101.719H323.055ZM342.555 132V128.789L358.516 109.898H343.492V106.641H363.273V109.852L347.289 128.742H364.141V132H342.555ZM375.484 120.211C375.484 123.055 376.109 125.281 377.359 126.891C378.625 128.5 380.352 129.305 382.539 129.305C384.148 129.305 385.555 128.961 386.758 128.273C387.977 127.57 388.789 126.617 389.195 125.414L392.898 126.469C392.211 128.406 390.945 129.891 389.102 130.922C387.273 131.953 385.086 132.469 382.539 132.469C378.852 132.469 376.016 131.32 374.031 129.023C372.047 126.727 371.055 123.438 371.055 119.156C371.055 114.984 372.023 111.781 373.961 109.547C375.914 107.297 378.727 106.172 382.398 106.172C386.07 106.172 388.852 107.289 390.742 109.523C392.633 111.758 393.578 115.133 393.578 119.648V120.211H375.484ZM382.445 109.289C380.352 109.289 378.695 109.977 377.477 111.352C376.258 112.711 375.609 114.586 375.531 116.977H389.219C388.781 111.852 386.523 109.289 382.445 109.289ZM451.023 120.516C451.023 124.688 450.133 127.727 448.352 129.633C446.57 131.523 443.711 132.469 439.773 132.469C435.961 132.469 433.195 131.555 431.477 129.727C429.773 127.883 428.922 124.953 428.922 120.938V100.383H433.398V120.328C433.398 123.516 433.852 125.734 434.758 126.984C435.68 128.219 437.344 128.836 439.75 128.836C442.266 128.836 444.031 128.195 445.047 126.914C446.062 125.633 446.57 123.336 446.57 120.023V100.383H451.023V120.516ZM474.766 132V115.711C474.766 113.586 474.352 112.008 473.523 110.977C472.711 109.945 471.406 109.43 469.609 109.43C467.672 109.43 466.078 110.141 464.828 111.562C463.594 112.969 462.977 114.883 462.977 117.305V132H458.758V112.055C458.758 109.102 458.711 107.297 458.617 106.641H462.602C462.617 106.719 462.633 106.93 462.648 107.273C462.664 107.617 462.68 108.016 462.695 108.469C462.727 108.906 462.758 109.742 462.789 110.977H462.859C464.5 107.773 467.203 106.172 470.969 106.172C473.672 106.172 475.688 106.906 477.016 108.375C478.344 109.828 479.008 112.07 479.008 115.102V132H474.766ZM500.711 128.672H509.617V132H486.602V128.672H496.492V109.969H489.016V106.641H500.711V128.672ZM496.023 101.719V97.2188H500.711V101.719H496.023ZM516.531 109.969V106.641H520.516L521.875 100.031H524.688V106.641H534.812V109.969H524.688V125.25C524.688 126.484 525.016 127.398 525.672 127.992C526.344 128.586 527.438 128.883 528.953 128.883C531.047 128.883 533.367 128.617 535.914 128.086V131.297C533.273 132.016 530.656 132.375 528.062 132.375C525.531 132.375 523.633 131.844 522.367 130.781C521.102 129.703 520.469 128.008 520.469 125.695V109.969H516.531Z" fill="#93C5FD"/>
<path d="M630.109 111.938V108.469H653.43V111.938H630.109ZM630.109 123.938V120.469H653.43V123.938H630.109Z" fill="#9CA3AF"/>
<line x1="1379" y1="115" x2="744" y2="115" stroke="#9CA3AF" stroke-width="4"/>
<rect x="811.5" y="147.5" width="501" height="77" stroke="#9CA3AF" stroke-width="3"/>
<path d="M835.797 198V166.383H857.336V170.039H840.273V179.93H855.93V183.539H840.273V194.344H858.297V198H835.797ZM881.172 198V181.711C881.172 179.586 880.758 178.008 879.93 176.977C879.117 175.945 877.812 175.43 876.016 175.43C874.078 175.43 872.484 176.141 871.234 177.562C870 178.969 869.383 180.883 869.383 183.305V198H865.164V178.055C865.164 175.102 865.117 173.297 865.023 172.641H869.008C869.023 172.719 869.039 172.93 869.055 173.273C869.07 173.617 869.086 174.016 869.102 174.469C869.133 174.906 869.164 175.742 869.195 176.977H869.266C870.906 173.773 873.609 172.172 877.375 172.172C880.078 172.172 882.094 172.906 883.422 174.375C884.75 175.828 885.414 178.07 885.414 181.102V198H881.172ZM894.109 175.969V172.641H898.094L899.453 166.031H902.266V172.641H912.391V175.969H902.266V191.25C902.266 192.484 902.594 193.398 903.25 193.992C903.922 194.586 905.016 194.883 906.531 194.883C908.625 194.883 910.945 194.617 913.492 194.086V197.297C910.852 198.016 908.234 198.375 905.641 198.375C903.109 198.375 901.211 197.844 899.945 196.781C898.68 195.703 898.047 194.008 898.047 191.695V175.969H894.109ZM942.977 176.484C941.227 176.188 939.57 176.039 938.008 176.039C935.492 176.039 933.461 176.984 931.914 178.875C930.367 180.766 929.594 183.172 929.594 186.094V198H925.375V181.57C925.375 180.383 925.266 178.984 925.047 177.375C924.844 175.766 924.547 174.188 924.156 172.641H928.164C928.789 174.797 929.164 176.75 929.289 178.5H929.406C930.188 176.75 930.953 175.469 931.703 174.656C932.453 173.828 933.344 173.211 934.375 172.805C935.406 172.383 936.664 172.172 938.148 172.172C939.773 172.172 941.383 172.305 942.977 172.57V176.484ZM954.156 207.961C953 207.961 952.031 207.875 951.25 207.703V204.539C951.844 204.633 952.5 204.68 953.219 204.68C954.453 204.68 955.609 204.219 956.688 203.297C957.781 202.375 958.703 200.906 959.453 198.891L959.875 197.742L948.859 172.641H953.359L959.547 187.688C960.969 191.188 961.734 193.172 961.844 193.641L962.805 191.062L970.07 172.641H974.523L963.836 198C962.445 201.672 961 204.25 959.5 205.734C958.016 207.219 956.234 207.961 954.156 207.961ZM1012.8 187.125V183.375H1025.92V187.125H1012.8ZM1089.06 189.328C1089.06 192.203 1088.01 194.445 1085.9 196.055C1083.8 197.664 1080.81 198.469 1076.92 198.469C1069.78 198.469 1065.63 195.672 1064.48 190.078L1068.81 189.211C1069.25 191.227 1070.16 192.695 1071.53 193.617C1072.91 194.523 1074.74 194.977 1077.04 194.977C1079.52 194.977 1081.41 194.492 1082.69 193.523C1083.98 192.555 1084.63 191.18 1084.63 189.398C1084.63 188.305 1084.38 187.414 1083.86 186.727C1083.36 186.039 1082.7 185.477 1081.87 185.039C1081.04 184.602 1080.1 184.25 1079.05 183.984C1078.02 183.703 1076.98 183.43 1075.91 183.164C1073.4 182.508 1071.6 181.922 1070.52 181.406C1069.46 180.891 1068.61 180.305 1067.97 179.648C1067.33 178.977 1066.84 178.211 1066.52 177.352C1066.19 176.492 1066.02 175.484 1066.02 174.328C1066.02 171.625 1066.97 169.547 1068.86 168.094C1070.77 166.625 1073.49 165.891 1077.04 165.891C1080.35 165.891 1082.88 166.469 1084.63 167.625C1086.38 168.781 1087.6 170.734 1088.29 173.484L1083.88 174.258C1083.51 172.508 1082.76 171.242 1081.63 170.461C1080.51 169.664 1078.97 169.266 1077.02 169.266C1072.59 169.266 1070.38 170.93 1070.38 174.258C1070.38 175.195 1070.59 175.961 1070.99 176.555C1071.41 177.133 1071.98 177.617 1072.68 178.008C1073.4 178.383 1074.23 178.695 1075.16 178.945C1076.12 179.195 1077.13 179.461 1078.21 179.742C1080.38 180.289 1081.95 180.75 1082.9 181.125C1083.85 181.484 1084.7 181.898 1085.43 182.367C1086.18 182.836 1086.82 183.391 1087.35 184.031C1087.88 184.672 1088.3 185.422 1088.59 186.281C1088.91 187.141 1089.06 188.156 1089.06 189.328ZM1097.01 198V166.383H1101.48V194.344H1117.23V198H1097.01ZM1175.34 175.852C1175.34 177.805 1174.87 179.547 1173.93 181.078C1173.01 182.609 1171.68 183.805 1169.95 184.664C1168.23 185.523 1166.23 185.953 1163.97 185.953H1157.38V198H1152.91V166.383H1163.69C1167.41 166.383 1170.27 167.219 1172.29 168.891C1174.32 170.547 1175.34 172.867 1175.34 175.852ZM1170.84 175.922C1170.84 171.953 1168.27 169.969 1163.15 169.969H1157.38V182.414H1163.34C1165.66 182.414 1167.49 181.844 1168.82 180.703C1170.16 179.562 1170.84 177.969 1170.84 175.922ZM1202.43 176.484C1200.68 176.188 1199.02 176.039 1197.46 176.039C1194.95 176.039 1192.91 176.984 1191.37 178.875C1189.82 180.766 1189.05 183.172 1189.05 186.094V198H1184.83V181.57C1184.83 180.383 1184.72 178.984 1184.5 177.375C1184.3 175.766 1184 174.188 1183.61 172.641H1187.62C1188.24 174.797 1188.62 176.75 1188.74 178.5H1188.86C1189.64 176.75 1190.41 175.469 1191.16 174.656C1191.91 173.828 1192.8 173.211 1193.83 172.805C1194.86 172.383 1196.12 172.172 1197.6 172.172C1199.23 172.172 1200.84 172.305 1202.43 172.57V176.484ZM1224.23 194.672H1233.13V198H1210.12V194.672H1220.01V175.969H1212.53V172.641H1224.23V194.672ZM1219.54 167.719V163.219H1224.23V167.719H1219.54ZM1238.64 185.297C1238.64 181.078 1239.65 177.836 1241.66 175.57C1243.68 173.305 1246.59 172.172 1250.41 172.172C1253.25 172.172 1255.59 172.859 1257.44 174.234C1259.28 175.594 1260.42 177.43 1260.86 179.742L1256.36 180.07C1256.11 178.648 1255.48 177.531 1254.48 176.719C1253.48 175.891 1252.06 175.477 1250.22 175.477C1247.75 175.477 1245.94 176.242 1244.78 177.773C1243.64 179.305 1243.07 181.781 1243.07 185.203C1243.07 188.672 1243.64 191.211 1244.78 192.82C1245.94 194.414 1247.74 195.211 1250.2 195.211C1251.88 195.211 1253.28 194.797 1254.39 193.969C1255.5 193.141 1256.19 191.875 1256.45 190.172L1260.91 190.453C1260.7 191.953 1260.13 193.32 1259.2 194.555C1258.27 195.773 1257.05 196.734 1255.52 197.438C1253.98 198.125 1252.27 198.469 1250.38 198.469C1246.55 198.469 1243.64 197.344 1241.64 195.094C1239.64 192.844 1238.64 189.578 1238.64 185.297ZM1271.97 186.211C1271.97 189.055 1272.59 191.281 1273.84 192.891C1275.11 194.5 1276.84 195.305 1279.02 195.305C1280.63 195.305 1282.04 194.961 1283.24 194.273C1284.46 193.57 1285.27 192.617 1285.68 191.414L1289.38 192.469C1288.7 194.406 1287.43 195.891 1285.59 196.922C1283.76 197.953 1281.57 198.469 1279.02 198.469C1275.34 198.469 1272.5 197.32 1270.52 195.023C1268.53 192.727 1267.54 189.438 1267.54 185.156C1267.54 180.984 1268.51 177.781 1270.45 175.547C1272.4 173.297 1275.21 172.172 1278.88 172.172C1282.55 172.172 1285.34 173.289 1287.23 175.523C1289.12 177.758 1290.06 181.133 1290.06 185.648V186.211H1271.97ZM1278.93 175.289C1276.84 175.289 1275.18 175.977 1273.96 177.352C1272.74 178.711 1272.09 180.586 1272.02 182.977H1285.7C1285.27 177.852 1283.01 175.289 1278.93 175.289Z" fill="#F1F1F1"/>
<rect x="838.5" y="1.5" width="447" height="77" stroke="#9CA3AF" stroke-width="3"/>
<path d="M881.43 52L872.852 38.5234H867.273V52H862.797V20.3828H874.094C877.734 20.3828 880.508 21.1406 882.414 22.6562C884.32 24.1562 885.273 26.3125 885.273 29.125C885.273 31.4531 884.539 33.4141 883.07 35.0078C881.617 36.6016 879.664 37.6016 877.211 38.0078L886.586 52H881.43ZM880.773 29.1953C880.773 25.7109 878.398 23.9688 873.648 23.9688H867.273V34.9844H873.836C876.07 34.9844 877.781 34.4844 878.969 33.4844C880.172 32.4844 880.773 31.0547 880.773 29.1953ZM905.289 48.6719H914.195V52H891.18V48.6719H901.07V29.9688H893.594V26.6406H905.289V48.6719ZM900.602 21.7188V17.2188H905.289V21.7188H900.602ZM941.5 44.7578C941.5 47.1641 940.586 49.0547 938.758 50.4297C936.945 51.7891 934.43 52.4688 931.211 52.4688C927.992 52.4688 925.539 51.9688 923.852 50.9688C922.18 49.9531 921.086 48.3594 920.57 46.1875L924.297 45.4609C924.594 46.8047 925.227 47.7891 926.195 48.4141C927.18 49.0234 928.852 49.3281 931.211 49.3281C935.43 49.3281 937.539 47.9922 937.539 45.3203C937.539 44.3203 937.156 43.5156 936.391 42.9062C935.625 42.2812 934.453 41.7734 932.875 41.3828C928.75 40.3672 926.133 39.5703 925.023 38.9922C923.914 38.4141 923.062 37.6953 922.469 36.8359C921.875 35.9609 921.578 34.875 921.578 33.5781C921.578 31.2812 922.406 29.4844 924.062 28.1875C925.719 26.8906 928.117 26.2422 931.258 26.2422C934.008 26.2422 936.203 26.7656 937.844 27.8125C939.484 28.8438 940.508 30.3516 940.914 32.3359L937.117 32.8047C936.945 31.6797 936.391 30.8281 935.453 30.25C934.516 29.6719 933.117 29.3828 931.258 29.3828C927.43 29.3828 925.516 30.5625 925.516 32.9219C925.516 33.8594 925.836 34.6094 926.477 35.1719C927.133 35.7344 928.18 36.1875 929.617 36.5312L932.406 37.2578C934.953 37.8828 936.781 38.5 937.891 39.1094C939.016 39.7188 939.898 40.4844 940.539 41.4062C941.18 42.3125 941.5 43.4297 941.5 44.7578ZM966.906 52L958.328 40.3047L955.234 42.6016V52H951.016V17.2188H955.234V38.9453L966.367 26.6406H971.312L961.023 37.5391L971.852 52H966.906ZM1028.69 39.2031C1028.69 48.0469 1025.62 52.4688 1019.5 52.4688C1015.66 52.4688 1013.07 51.0312 1011.74 48.1562H1011.62C1011.69 48.2812 1011.72 49.5781 1011.72 52.0469V61.9609H1007.48V31.8906C1007.48 29.2344 1007.43 27.4844 1007.34 26.6406H1011.44C1011.45 26.7031 1011.48 26.9375 1011.51 27.3438C1011.54 27.7344 1011.57 28.3203 1011.6 29.1016C1011.65 29.8672 1011.67 30.4375 1011.67 30.8125H1011.77C1012.55 29.1719 1013.54 27.9844 1014.74 27.25C1015.96 26.5 1017.55 26.125 1019.5 26.125C1022.59 26.125 1024.9 27.1953 1026.41 29.3359C1027.93 31.4609 1028.69 34.75 1028.69 39.2031ZM1024.33 39.2031C1024.33 35.6719 1023.85 33.1562 1022.9 31.6562C1021.95 30.1406 1020.45 29.3828 1018.4 29.3828C1016.04 29.3828 1014.34 30.2422 1013.29 31.9609C1012.24 33.6641 1011.72 36.25 1011.72 39.7188C1011.72 43.0469 1012.24 45.4844 1013.29 47.0312C1014.34 48.5781 1016.02 49.3516 1018.35 49.3516C1020.43 49.3516 1021.95 48.5625 1022.9 46.9844C1023.85 45.4062 1024.33 42.8125 1024.33 39.2031ZM1039.52 40.2109C1039.52 43.0547 1040.14 45.2812 1041.39 46.8906C1042.66 48.5 1044.38 49.3047 1046.57 49.3047C1048.18 49.3047 1049.59 48.9609 1050.79 48.2734C1052.01 47.5703 1052.82 46.6172 1053.23 45.4141L1056.93 46.4688C1056.24 48.4062 1054.98 49.8906 1053.13 50.9219C1051.3 51.9531 1049.12 52.4688 1046.57 52.4688C1042.88 52.4688 1040.05 51.3203 1038.06 49.0234C1036.08 46.7266 1035.09 43.4375 1035.09 39.1562C1035.09 34.9844 1036.05 31.7812 1037.99 29.5469C1039.95 27.2969 1042.76 26.1719 1046.43 26.1719C1050.1 26.1719 1052.88 27.2891 1054.77 29.5234C1056.66 31.7578 1057.61 35.1328 1057.61 39.6484V40.2109H1039.52ZM1046.48 29.2891C1044.38 29.2891 1042.73 29.9766 1041.51 31.3516C1040.29 32.7109 1039.64 34.5859 1039.56 36.9766H1053.25C1052.81 31.8516 1050.55 29.2891 1046.48 29.2891ZM1085.29 30.4844C1083.54 30.1875 1081.88 30.0391 1080.32 30.0391C1077.8 30.0391 1075.77 30.9844 1074.23 32.875C1072.68 34.7656 1071.91 37.1719 1071.91 40.0938V52H1067.69V35.5703C1067.69 34.3828 1067.58 32.9844 1067.36 31.375C1067.16 29.7656 1066.86 28.1875 1066.47 26.6406H1070.48C1071.1 28.7969 1071.48 30.75 1071.6 32.5H1071.72C1072.5 30.75 1073.27 29.4688 1074.02 28.6562C1074.77 27.8281 1075.66 27.2109 1076.69 26.8047C1077.72 26.3828 1078.98 26.1719 1080.46 26.1719C1082.09 26.1719 1083.7 26.3047 1085.29 26.5703V30.4844ZM1135.07 24.0391V52H1130.62V24.0391H1120.23V20.3828H1145.45V24.0391H1135.07ZM1171.77 30.4844C1170.02 30.1875 1168.37 30.0391 1166.8 30.0391C1164.29 30.0391 1162.26 30.9844 1160.71 32.875C1159.16 34.7656 1158.39 37.1719 1158.39 40.0938V52H1154.17V35.5703C1154.17 34.3828 1154.06 32.9844 1153.84 31.375C1153.64 29.7656 1153.34 28.1875 1152.95 26.6406H1156.96C1157.59 28.7969 1157.96 30.75 1158.09 32.5H1158.2C1158.98 30.75 1159.75 29.4688 1160.5 28.6562C1161.25 27.8281 1162.14 27.2109 1163.17 26.8047C1164.2 26.3828 1165.46 26.1719 1166.95 26.1719C1168.57 26.1719 1170.18 26.3047 1171.77 26.5703V30.4844ZM1201.91 49.3984C1202.32 49.3984 1202.78 49.3438 1203.3 49.2344V51.8594C1202.23 52.1094 1201.15 52.2344 1200.04 52.2344C1198.48 52.2344 1197.34 51.8281 1196.62 51.0156C1195.91 50.1875 1195.52 48.8984 1195.42 47.1484H1195.28C1194.27 49.0391 1193.06 50.3984 1191.67 51.2266C1190.3 52.0547 1188.59 52.4688 1186.56 52.4688C1184.09 52.4688 1182.23 51.7969 1180.98 50.4531C1179.73 49.1094 1179.11 47.2656 1179.11 44.9219C1179.11 39.4688 1182.66 36.7031 1189.75 36.625L1195.28 36.5312V35.1484C1195.28 33.1016 1194.87 31.6328 1194.04 30.7422C1193.21 29.8359 1191.89 29.3828 1190.08 29.3828C1188.23 29.3828 1186.91 29.7109 1186.09 30.3672C1185.28 31.0234 1184.8 32.0391 1184.64 33.4141L1180.23 33.0156C1180.95 28.4531 1184.26 26.1719 1190.15 26.1719C1193.27 26.1719 1195.62 26.9062 1197.18 28.375C1198.76 29.8281 1199.55 31.9375 1199.55 34.7031V45.625C1199.55 46.875 1199.71 47.8203 1200.04 48.4609C1200.37 49.0859 1200.99 49.3984 1201.91 49.3984ZM1187.64 49.2578C1189.14 49.2578 1190.47 48.8984 1191.62 48.1797C1192.78 47.4609 1193.68 46.5 1194.32 45.2969C1194.96 44.0938 1195.28 42.8516 1195.28 41.5703V39.4844L1190.83 39.5781C1188.98 39.6094 1187.58 39.8125 1186.61 40.1875C1185.64 40.5625 1184.88 41.1406 1184.34 41.9219C1183.8 42.6875 1183.54 43.7109 1183.54 44.9922C1183.54 46.2734 1183.88 47.3047 1184.57 48.0859C1185.27 48.8672 1186.3 49.2578 1187.64 49.2578ZM1225.14 47.9219C1224.38 49.5625 1223.36 50.7578 1222.09 51.5078C1220.83 52.2422 1219.25 52.6094 1217.36 52.6094C1214.2 52.6094 1211.88 51.5234 1210.4 49.3516C1208.91 47.1797 1208.17 43.9062 1208.17 39.5312C1208.17 30.6875 1211.23 26.2656 1217.36 26.2656C1219.25 26.2656 1220.83 26.6016 1222.09 27.2734C1223.38 27.9453 1224.4 29.0469 1225.16 30.5781H1225.21L1225.16 27.0391V17.2188H1229.38V46.7734C1229.38 49.4141 1229.43 51.1562 1229.52 52H1225.49C1225.43 51.7656 1225.38 51.1953 1225.33 50.2891C1225.28 49.3828 1225.26 48.5938 1225.26 47.9219H1225.14ZM1212.53 39.3906C1212.53 42.8594 1212.99 45.3906 1213.91 46.9844C1214.85 48.5625 1216.37 49.3516 1218.46 49.3516C1220.74 49.3516 1222.43 48.5312 1223.52 46.8906C1224.62 45.2344 1225.16 42.6094 1225.16 39.0156C1225.16 35.6562 1224.63 33.2109 1223.57 31.6797C1222.52 30.1484 1220.84 29.3828 1218.51 29.3828C1216.4 29.3828 1214.88 30.1875 1213.94 31.7969C1213 33.4062 1212.53 35.9375 1212.53 39.3906ZM1241.31 40.2109C1241.31 43.0547 1241.94 45.2812 1243.19 46.8906C1244.45 48.5 1246.18 49.3047 1248.37 49.3047C1249.98 49.3047 1251.38 48.9609 1252.59 48.2734C1253.8 47.5703 1254.62 46.6172 1255.02 45.4141L1258.73 46.4688C1258.04 48.4062 1256.77 49.8906 1254.93 50.9219C1253.1 51.9531 1250.91 52.4688 1248.37 52.4688C1244.68 52.4688 1241.84 51.3203 1239.86 49.0234C1237.88 46.7266 1236.88 43.4375 1236.88 39.1562C1236.88 34.9844 1237.85 31.7812 1239.79 29.5469C1241.74 27.2969 1244.55 26.1719 1248.23 26.1719C1251.9 26.1719 1254.68 27.2891 1256.57 29.5234C1258.46 31.7578 1259.41 35.1328 1259.41 39.6484V40.2109H1241.31ZM1248.27 29.2891C1246.18 29.2891 1244.52 29.9766 1243.3 31.3516C1242.09 32.7109 1241.44 34.5859 1241.36 36.9766H1255.05C1254.61 31.8516 1252.35 29.2891 1248.27 29.2891Z" fill="#FCA5A5"/>
</svg>
