<svg width="1500" height="80" viewBox="0 0 1500 80" fill="none" xmlns="http://www.w3.org/2000/svg">
<rect x="1.5" y="1.5" width="501" height="77" stroke="#9CA3AF" stroke-width="3"/>
<path d="M25.7969 52V20.3828H47.3359V24.0391H30.2734V33.9297H45.9297V37.5391H30.2734V48.3438H48.2969V52H25.7969ZM71.1719 52V35.7109C71.1719 33.5859 70.7578 32.0078 69.9297 30.9766C69.1172 29.9453 67.8125 29.4297 66.0156 29.4297C64.0781 29.4297 62.4844 30.1406 61.2344 31.5625C60 32.9688 59.3828 34.8828 59.3828 37.3047V52H55.1641V32.0547C55.1641 29.1016 55.1172 27.2969 55.0234 26.6406H59.0078C59.0234 26.7188 59.0391 26.9297 59.0547 27.2734C59.0703 27.6172 59.0859 28.0156 59.1016 28.4688C59.1328 28.9062 59.1641 29.7422 59.1953 30.9766H59.2656C60.9062 27.7734 63.6094 26.1719 67.375 26.1719C70.0781 26.1719 72.0938 26.9062 73.4219 28.375C74.75 29.8281 75.4141 32.0703 75.4141 35.1016V52H71.1719ZM84.1094 29.9688V26.6406H88.0938L89.4531 20.0312H92.2656V26.6406H102.391V29.9688H92.2656V45.25C92.2656 46.4844 92.5938 47.3984 93.25 47.9922C93.9219 48.5859 95.0156 48.8828 96.5312 48.8828C98.625 48.8828 100.945 48.6172 103.492 48.0859V51.2969C100.852 52.0156 98.2344 52.375 95.6406 52.375C93.1094 52.375 91.2109 51.8438 89.9453 50.7812C88.6797 49.7031 88.0469 48.0078 88.0469 45.6953V29.9688H84.1094ZM132.977 30.4844C131.227 30.1875 129.57 30.0391 128.008 30.0391C125.492 30.0391 123.461 30.9844 121.914 32.875C120.367 34.7656 119.594 37.1719 119.594 40.0938V52H115.375V35.5703C115.375 34.3828 115.266 32.9844 115.047 31.375C114.844 29.7656 114.547 28.1875 114.156 26.6406H118.164C118.789 28.7969 119.164 30.75 119.289 32.5H119.406C120.188 30.75 120.953 29.4688 121.703 28.6562C122.453 27.8281 123.344 27.2109 124.375 26.8047C125.406 26.3828 126.664 26.1719 128.148 26.1719C129.773 26.1719 131.383 26.3047 132.977 26.5703V30.4844ZM144.156 61.9609C143 61.9609 142.031 61.875 141.25 61.7031V58.5391C141.844 58.6328 142.5 58.6797 143.219 58.6797C144.453 58.6797 145.609 58.2188 146.688 57.2969C147.781 56.375 148.703 54.9062 149.453 52.8906L149.875 51.7422L138.859 26.6406H143.359L149.547 41.6875C150.969 45.1875 151.734 47.1719 151.844 47.6406L152.805 45.0625L160.07 26.6406H164.523L153.836 52C152.445 55.6719 151 58.25 149.5 59.7344C148.016 61.2188 146.234 61.9609 144.156 61.9609ZM202.797 41.125V37.375H215.922V41.125H202.797ZM279.062 43.3281C279.062 46.2031 278.008 48.4453 275.898 50.0547C273.805 51.6641 270.812 52.4688 266.922 52.4688C259.781 52.4688 255.633 49.6719 254.477 44.0781L258.812 43.2109C259.25 45.2266 260.156 46.6953 261.531 47.6172C262.906 48.5234 264.742 48.9766 267.039 48.9766C269.523 48.9766 271.406 48.4922 272.688 47.5234C273.984 46.5547 274.633 45.1797 274.633 43.3984C274.633 42.3047 274.375 41.4141 273.859 40.7266C273.359 40.0391 272.695 39.4766 271.867 39.0391C271.039 38.6016 270.102 38.25 269.055 37.9844C268.023 37.7031 266.977 37.4297 265.914 37.1641C263.398 36.5078 261.602 35.9219 260.523 35.4062C259.461 34.8906 258.609 34.3047 257.969 33.6484C257.328 32.9766 256.844 32.2109 256.516 31.3516C256.188 30.4922 256.023 29.4844 256.023 28.3281C256.023 25.625 256.969 23.5469 258.859 22.0938C260.766 20.625 263.492 19.8906 267.039 19.8906C270.352 19.8906 272.883 20.4688 274.633 21.625C276.383 22.7812 277.602 24.7344 278.289 27.4844L273.883 28.2578C273.508 26.5078 272.758 25.2422 271.633 24.4609C270.508 23.6641 268.969 23.2656 267.016 23.2656C262.594 23.2656 260.383 24.9297 260.383 28.2578C260.383 29.1953 260.586 29.9609 260.992 30.5547C261.414 31.1328 261.977 31.6172 262.68 32.0078C263.398 32.3828 264.227 32.6953 265.164 32.9453C266.117 33.1953 267.133 33.4609 268.211 33.7422C270.383 34.2891 271.945 34.75 272.898 35.125C273.852 35.4844 274.695 35.8984 275.43 36.3672C276.18 36.8359 276.82 37.3906 277.352 38.0312C277.883 38.6719 278.297 39.4219 278.594 40.2812C278.906 41.1406 279.062 42.1562 279.062 43.3281ZM287.008 52V20.3828H291.484V48.3438H307.234V52H287.008ZM365.336 29.8516C365.336 31.8047 364.867 33.5469 363.93 35.0781C363.008 36.6094 361.68 37.8047 359.945 38.6641C358.227 39.5234 356.234 39.9531 353.969 39.9531H347.383V52H342.906V20.3828H353.688C357.406 20.3828 360.273 21.2188 362.289 22.8906C364.32 24.5469 365.336 26.8672 365.336 29.8516ZM360.836 29.9219C360.836 25.9531 358.273 23.9688 353.148 23.9688H347.383V36.4141H353.336C355.664 36.4141 357.492 35.8438 358.82 34.7031C360.164 33.5625 360.836 31.9688 360.836 29.9219ZM392.43 30.4844C390.68 30.1875 389.023 30.0391 387.461 30.0391C384.945 30.0391 382.914 30.9844 381.367 32.875C379.82 34.7656 379.047 37.1719 379.047 40.0938V52H374.828V35.5703C374.828 34.3828 374.719 32.9844 374.5 31.375C374.297 29.7656 374 28.1875 373.609 26.6406H377.617C378.242 28.7969 378.617 30.75 378.742 32.5H378.859C379.641 30.75 380.406 29.4688 381.156 28.6562C381.906 27.8281 382.797 27.2109 383.828 26.8047C384.859 26.3828 386.117 26.1719 387.602 26.1719C389.227 26.1719 390.836 26.3047 392.43 26.5703V30.4844ZM414.227 48.6719H423.133V52H400.117V48.6719H410.008V29.9688H402.531V26.6406H414.227V48.6719ZM409.539 21.7188V17.2188H414.227V21.7188H409.539ZM428.641 39.2969C428.641 35.0781 429.648 31.8359 431.664 29.5703C433.68 27.3047 436.594 26.1719 440.406 26.1719C443.25 26.1719 445.594 26.8594 447.438 28.2344C449.281 29.5938 450.422 31.4297 450.859 33.7422L446.359 34.0703C446.109 32.6484 445.484 31.5312 444.484 30.7188C443.484 29.8906 442.062 29.4766 440.219 29.4766C437.75 29.4766 435.938 30.2422 434.781 31.7734C433.641 33.3047 433.07 35.7812 433.07 39.2031C433.07 42.6719 433.641 45.2109 434.781 46.8203C435.938 48.4141 437.742 49.2109 440.195 49.2109C441.883 49.2109 443.281 48.7969 444.391 47.9688C445.5 47.1406 446.188 45.875 446.453 44.1719L450.906 44.4531C450.703 45.9531 450.133 47.3203 449.195 48.5547C448.273 49.7734 447.047 50.7344 445.516 51.4375C443.984 52.125 442.273 52.4688 440.383 52.4688C436.555 52.4688 433.641 51.3438 431.641 49.0938C429.641 46.8438 428.641 43.5781 428.641 39.2969ZM461.969 40.2109C461.969 43.0547 462.594 45.2812 463.844 46.8906C465.109 48.5 466.836 49.3047 469.023 49.3047C470.633 49.3047 472.039 48.9609 473.242 48.2734C474.461 47.5703 475.273 46.6172 475.68 45.4141L479.383 46.4688C478.695 48.4062 477.43 49.8906 475.586 50.9219C473.758 51.9531 471.57 52.4688 469.023 52.4688C465.336 52.4688 462.5 51.3203 460.516 49.0234C458.531 46.7266 457.539 43.4375 457.539 39.1562C457.539 34.9844 458.508 31.7812 460.445 29.5469C462.398 27.2969 465.211 26.1719 468.883 26.1719C472.555 26.1719 475.336 27.2891 477.227 29.5234C479.117 31.7578 480.062 35.1328 480.062 39.6484V40.2109H461.969ZM468.93 29.2891C466.836 29.2891 465.18 29.9766 463.961 31.3516C462.742 32.7109 462.094 34.5859 462.016 36.9766H475.703C475.266 31.8516 473.008 29.2891 468.93 29.2891Z" fill="#F1F1F1"/>
<path d="M572.453 31.9375V28.4688H595.773V31.9375H572.453ZM572.453 43.9375V40.4688H595.773V43.9375H572.453Z" fill="#9CA3AF"/>
<path d="M666.797 52V20.3828H688.336V24.0391H671.273V33.9297H686.93V37.5391H671.273V48.3438H689.297V52H666.797ZM712.172 52V35.7109C712.172 33.5859 711.758 32.0078 710.93 30.9766C710.117 29.9453 708.812 29.4297 707.016 29.4297C705.078 29.4297 703.484 30.1406 702.234 31.5625C701 32.9688 700.383 34.8828 700.383 37.3047V52H696.164V32.0547C696.164 29.1016 696.117 27.2969 696.023 26.6406H700.008C700.023 26.7188 700.039 26.9297 700.055 27.2734C700.07 27.6172 700.086 28.0156 700.102 28.4688C700.133 28.9062 700.164 29.7422 700.195 30.9766H700.266C701.906 27.7734 704.609 26.1719 708.375 26.1719C711.078 26.1719 713.094 26.9062 714.422 28.375C715.75 29.8281 716.414 32.0703 716.414 35.1016V52H712.172ZM725.109 29.9688V26.6406H729.094L730.453 20.0312H733.266V26.6406H743.391V29.9688H733.266V45.25C733.266 46.4844 733.594 47.3984 734.25 47.9922C734.922 48.5859 736.016 48.8828 737.531 48.8828C739.625 48.8828 741.945 48.6172 744.492 48.0859V51.2969C741.852 52.0156 739.234 52.375 736.641 52.375C734.109 52.375 732.211 51.8438 730.945 50.7812C729.68 49.7031 729.047 48.0078 729.047 45.6953V29.9688H725.109ZM773.977 30.4844C772.227 30.1875 770.57 30.0391 769.008 30.0391C766.492 30.0391 764.461 30.9844 762.914 32.875C761.367 34.7656 760.594 37.1719 760.594 40.0938V52H756.375V35.5703C756.375 34.3828 756.266 32.9844 756.047 31.375C755.844 29.7656 755.547 28.1875 755.156 26.6406H759.164C759.789 28.7969 760.164 30.75 760.289 32.5H760.406C761.188 30.75 761.953 29.4688 762.703 28.6562C763.453 27.8281 764.344 27.2109 765.375 26.8047C766.406 26.3828 767.664 26.1719 769.148 26.1719C770.773 26.1719 772.383 26.3047 773.977 26.5703V30.4844ZM785.156 61.9609C784 61.9609 783.031 61.875 782.25 61.7031V58.5391C782.844 58.6328 783.5 58.6797 784.219 58.6797C785.453 58.6797 786.609 58.2188 787.688 57.2969C788.781 56.375 789.703 54.9062 790.453 52.8906L790.875 51.7422L779.859 26.6406H784.359L790.547 41.6875C791.969 45.1875 792.734 47.1719 792.844 47.6406L793.805 45.0625L801.07 26.6406H805.523L794.836 52C793.445 55.6719 792 58.25 790.5 59.7344C789.016 61.2188 787.234 61.9609 785.156 61.9609ZM862.195 29.8516C862.195 31.8047 861.727 33.5469 860.789 35.0781C859.867 36.6094 858.539 37.8047 856.805 38.6641C855.086 39.5234 853.094 39.9531 850.828 39.9531H844.242V52H839.766V20.3828H850.547C854.266 20.3828 857.133 21.2188 859.148 22.8906C861.18 24.5469 862.195 26.8672 862.195 29.8516ZM857.695 29.9219C857.695 25.9531 855.133 23.9688 850.008 23.9688H844.242V36.4141H850.195C852.523 36.4141 854.352 35.8438 855.68 34.7031C857.023 33.5625 857.695 31.9688 857.695 29.9219ZM889.289 30.4844C887.539 30.1875 885.883 30.0391 884.32 30.0391C881.805 30.0391 879.773 30.9844 878.227 32.875C876.68 34.7656 875.906 37.1719 875.906 40.0938V52H871.688V35.5703C871.688 34.3828 871.578 32.9844 871.359 31.375C871.156 29.7656 870.859 28.1875 870.469 26.6406H874.477C875.102 28.7969 875.477 30.75 875.602 32.5H875.719C876.5 30.75 877.266 29.4688 878.016 28.6562C878.766 27.8281 879.656 27.2109 880.688 26.8047C881.719 26.3828 882.977 26.1719 884.461 26.1719C886.086 26.1719 887.695 26.3047 889.289 26.5703V30.4844ZM911.086 48.6719H919.992V52H896.977V48.6719H906.867V29.9688H899.391V26.6406H911.086V48.6719ZM906.398 21.7188V17.2188H911.086V21.7188H906.398ZM925.5 39.2969C925.5 35.0781 926.508 31.8359 928.523 29.5703C930.539 27.3047 933.453 26.1719 937.266 26.1719C940.109 26.1719 942.453 26.8594 944.297 28.2344C946.141 29.5938 947.281 31.4297 947.719 33.7422L943.219 34.0703C942.969 32.6484 942.344 31.5312 941.344 30.7188C940.344 29.8906 938.922 29.4766 937.078 29.4766C934.609 29.4766 932.797 30.2422 931.641 31.7734C930.5 33.3047 929.93 35.7812 929.93 39.2031C929.93 42.6719 930.5 45.2109 931.641 46.8203C932.797 48.4141 934.602 49.2109 937.055 49.2109C938.742 49.2109 940.141 48.7969 941.25 47.9688C942.359 47.1406 943.047 45.875 943.312 44.1719L947.766 44.4531C947.562 45.9531 946.992 47.3203 946.055 48.5547C945.133 49.7734 943.906 50.7344 942.375 51.4375C940.844 52.125 939.133 52.4688 937.242 52.4688C933.414 52.4688 930.5 51.3438 928.5 49.0938C926.5 46.8438 925.5 43.5781 925.5 39.2969ZM958.828 40.2109C958.828 43.0547 959.453 45.2812 960.703 46.8906C961.969 48.5 963.695 49.3047 965.883 49.3047C967.492 49.3047 968.898 48.9609 970.102 48.2734C971.32 47.5703 972.133 46.6172 972.539 45.4141L976.242 46.4688C975.555 48.4062 974.289 49.8906 972.445 50.9219C970.617 51.9531 968.43 52.4688 965.883 52.4688C962.195 52.4688 959.359 51.3203 957.375 49.0234C955.391 46.7266 954.398 43.4375 954.398 39.1562C954.398 34.9844 955.367 31.7812 957.305 29.5469C959.258 27.2969 962.07 26.1719 965.742 26.1719C969.414 26.1719 972.195 27.2891 974.086 29.5234C975.977 31.7578 976.922 35.1328 976.922 39.6484V40.2109H958.828ZM965.789 29.2891C963.695 29.2891 962.039 29.9766 960.82 31.3516C959.602 32.7109 958.953 34.5859 958.875 36.9766H972.562C972.125 31.8516 969.867 29.2891 965.789 29.2891ZM1016.77 41.125V37.375H1029.89V41.125H1016.77ZM1093.03 43.3281C1093.03 46.2031 1091.98 48.4453 1089.87 50.0547C1087.77 51.6641 1084.78 52.4688 1080.89 52.4688C1073.75 52.4688 1069.6 49.6719 1068.45 44.0781L1072.78 43.2109C1073.22 45.2266 1074.12 46.6953 1075.5 47.6172C1076.88 48.5234 1078.71 48.9766 1081.01 48.9766C1083.49 48.9766 1085.38 48.4922 1086.66 47.5234C1087.95 46.5547 1088.6 45.1797 1088.6 43.3984C1088.6 42.3047 1088.34 41.4141 1087.83 40.7266C1087.33 40.0391 1086.66 39.4766 1085.84 39.0391C1085.01 38.6016 1084.07 38.25 1083.02 37.9844C1081.99 37.7031 1080.95 37.4297 1079.88 37.1641C1077.37 36.5078 1075.57 35.9219 1074.49 35.4062C1073.43 34.8906 1072.58 34.3047 1071.94 33.6484C1071.3 32.9766 1070.81 32.2109 1070.48 31.3516C1070.16 30.4922 1069.99 29.4844 1069.99 28.3281C1069.99 25.625 1070.94 23.5469 1072.83 22.0938C1074.73 20.625 1077.46 19.8906 1081.01 19.8906C1084.32 19.8906 1086.85 20.4688 1088.6 21.625C1090.35 22.7812 1091.57 24.7344 1092.26 27.4844L1087.85 28.2578C1087.48 26.5078 1086.73 25.2422 1085.6 24.4609C1084.48 23.6641 1082.94 23.2656 1080.98 23.2656C1076.56 23.2656 1074.35 24.9297 1074.35 28.2578C1074.35 29.1953 1074.55 29.9609 1074.96 30.5547C1075.38 31.1328 1075.95 31.6172 1076.65 32.0078C1077.37 32.3828 1078.2 32.6953 1079.13 32.9453C1080.09 33.1953 1081.1 33.4609 1082.18 33.7422C1084.35 34.2891 1085.91 34.75 1086.87 35.125C1087.82 35.4844 1088.66 35.8984 1089.4 36.3672C1090.15 36.8359 1090.79 37.3906 1091.32 38.0312C1091.85 38.6719 1092.27 39.4219 1092.56 40.2812C1092.88 41.1406 1093.03 42.1562 1093.03 43.3281ZM1099.88 29.9688V26.6406H1103.86L1105.22 20.0312H1108.03V26.6406H1118.16V29.9688H1108.03V45.25C1108.03 46.4844 1108.36 47.3984 1109.02 47.9922C1109.69 48.5859 1110.78 48.8828 1112.3 48.8828C1114.39 48.8828 1116.71 48.6172 1119.26 48.0859V51.2969C1116.62 52.0156 1114 52.375 1111.41 52.375C1108.88 52.375 1106.98 51.8438 1105.71 50.7812C1104.45 49.7031 1103.81 48.0078 1103.81 45.6953V29.9688H1099.88ZM1149.96 39.2969C1149.96 43.5625 1148.98 46.8281 1147.01 49.0938C1145.05 51.3438 1142.23 52.4688 1138.52 52.4688C1134.9 52.4688 1132.12 51.3281 1130.18 49.0469C1128.26 46.7656 1127.3 43.5156 1127.3 39.2969C1127.3 34.9375 1128.28 31.6641 1130.25 29.4766C1132.23 27.2734 1135.04 26.1719 1138.66 26.1719C1142.48 26.1719 1145.31 27.2578 1147.17 29.4297C1149.03 31.6016 1149.96 34.8906 1149.96 39.2969ZM1145.53 39.2969C1145.53 35.9375 1144.99 33.4297 1143.91 31.7734C1142.85 30.1172 1141.12 29.2891 1138.73 29.2891C1136.31 29.2891 1134.54 30.1328 1133.41 31.8203C1132.29 33.5078 1131.73 36 1131.73 39.2969C1131.73 42.5781 1132.29 45.0781 1133.41 46.7969C1134.54 48.5 1136.23 49.3516 1138.48 49.3516C1140.96 49.3516 1142.76 48.5156 1143.87 46.8438C1144.98 45.1719 1145.53 42.6562 1145.53 39.2969ZM1178.62 39.2031C1178.62 48.0469 1175.56 52.4688 1169.44 52.4688C1165.59 52.4688 1163.01 51.0312 1161.68 48.1562H1161.56C1161.62 48.2812 1161.66 49.5781 1161.66 52.0469V61.9609H1157.41V31.8906C1157.41 29.2344 1157.37 27.4844 1157.27 26.6406H1161.38C1161.39 26.7031 1161.41 26.9375 1161.45 27.3438C1161.48 27.7344 1161.51 28.3203 1161.54 29.1016C1161.59 29.8672 1161.61 30.4375 1161.61 30.8125H1161.7C1162.48 29.1719 1163.48 27.9844 1164.68 27.25C1165.9 26.5 1167.48 26.125 1169.44 26.125C1172.53 26.125 1174.84 27.1953 1176.35 29.3359C1177.87 31.4609 1178.62 34.75 1178.62 39.2031ZM1174.27 39.2031C1174.27 35.6719 1173.79 33.1562 1172.84 31.6562C1171.88 30.1406 1170.38 29.3828 1168.34 29.3828C1165.98 29.3828 1164.27 30.2422 1163.23 31.9609C1162.18 33.6641 1161.66 36.25 1161.66 39.7188C1161.66 43.0469 1162.18 45.4844 1163.23 47.0312C1164.27 48.5781 1165.96 49.3516 1168.29 49.3516C1170.37 49.3516 1171.88 48.5625 1172.84 46.9844C1173.79 45.4062 1174.27 42.8125 1174.27 39.2031ZM1216.29 52V20.3828H1220.77V48.3438H1236.52V52H1216.29ZM1265.27 39.2969C1265.27 43.5625 1264.29 46.8281 1262.32 49.0938C1260.37 51.3438 1257.54 52.4688 1253.84 52.4688C1250.21 52.4688 1247.43 51.3281 1245.49 49.0469C1243.57 46.7656 1242.61 43.5156 1242.61 39.2969C1242.61 34.9375 1243.59 31.6641 1245.56 29.4766C1247.55 27.2734 1250.35 26.1719 1253.98 26.1719C1257.79 26.1719 1260.62 27.2578 1262.48 29.4297C1264.34 31.6016 1265.27 34.8906 1265.27 39.2969ZM1260.84 39.2969C1260.84 35.9375 1260.3 33.4297 1259.23 31.7734C1258.16 30.1172 1256.44 29.2891 1254.05 29.2891C1251.62 29.2891 1249.85 30.1328 1248.73 31.8203C1247.6 33.5078 1247.04 36 1247.04 39.2969C1247.04 42.5781 1247.6 45.0781 1248.73 46.7969C1249.85 48.5 1251.54 49.3516 1253.79 49.3516C1256.27 49.3516 1258.07 48.5156 1259.18 46.8438C1260.29 45.1719 1260.84 42.6562 1260.84 39.2969ZM1293.23 44.7578C1293.23 47.1641 1292.32 49.0547 1290.49 50.4297C1288.68 51.7891 1286.16 52.4688 1282.95 52.4688C1279.73 52.4688 1277.27 51.9688 1275.59 50.9688C1273.91 49.9531 1272.82 48.3594 1272.3 46.1875L1276.03 45.4609C1276.33 46.8047 1276.96 47.7891 1277.93 48.4141C1278.91 49.0234 1280.59 49.3281 1282.95 49.3281C1287.16 49.3281 1289.27 47.9922 1289.27 45.3203C1289.27 44.3203 1288.89 43.5156 1288.12 42.9062C1287.36 42.2812 1286.19 41.7734 1284.61 41.3828C1280.48 40.3672 1277.87 39.5703 1276.76 38.9922C1275.65 38.4141 1274.8 37.6953 1274.2 36.8359C1273.61 35.9609 1273.31 34.875 1273.31 33.5781C1273.31 31.2812 1274.14 29.4844 1275.8 28.1875C1277.45 26.8906 1279.85 26.2422 1282.99 26.2422C1285.74 26.2422 1287.94 26.7656 1289.58 27.8125C1291.22 28.8438 1292.24 30.3516 1292.65 32.3359L1288.85 32.8047C1288.68 31.6797 1288.12 30.8281 1287.19 30.25C1286.25 29.6719 1284.85 29.3828 1282.99 29.3828C1279.16 29.3828 1277.25 30.5625 1277.25 32.9219C1277.25 33.8594 1277.57 34.6094 1278.21 35.1719C1278.87 35.7344 1279.91 36.1875 1281.35 36.5312L1284.14 37.2578C1286.69 37.8828 1288.52 38.5 1289.62 39.1094C1290.75 39.7188 1291.63 40.4844 1292.27 41.4062C1292.91 42.3125 1293.23 43.4297 1293.23 44.7578ZM1322.06 44.7578C1322.06 47.1641 1321.15 49.0547 1319.32 50.4297C1317.51 51.7891 1314.99 52.4688 1311.77 52.4688C1308.55 52.4688 1306.1 51.9688 1304.41 50.9688C1302.74 49.9531 1301.65 48.3594 1301.13 46.1875L1304.86 45.4609C1305.16 46.8047 1305.79 47.7891 1306.76 48.4141C1307.74 49.0234 1309.41 49.3281 1311.77 49.3281C1315.99 49.3281 1318.1 47.9922 1318.1 45.3203C1318.1 44.3203 1317.72 43.5156 1316.95 42.9062C1316.19 42.2812 1315.02 41.7734 1313.44 41.3828C1309.31 40.3672 1306.7 39.5703 1305.59 38.9922C1304.48 38.4141 1303.62 37.6953 1303.03 36.8359C1302.44 35.9609 1302.14 34.875 1302.14 33.5781C1302.14 31.2812 1302.97 29.4844 1304.62 28.1875C1306.28 26.8906 1308.68 26.2422 1311.82 26.2422C1314.57 26.2422 1316.77 26.7656 1318.41 27.8125C1320.05 28.8438 1321.07 30.3516 1321.48 32.3359L1317.68 32.8047C1317.51 31.6797 1316.95 30.8281 1316.02 30.25C1315.08 29.6719 1313.68 29.3828 1311.82 29.3828C1307.99 29.3828 1306.08 30.5625 1306.08 32.9219C1306.08 33.8594 1306.4 34.6094 1307.04 35.1719C1307.7 35.7344 1308.74 36.1875 1310.18 36.5312L1312.97 37.2578C1315.52 37.8828 1317.34 38.5 1318.45 39.1094C1319.58 39.7188 1320.46 40.4844 1321.1 41.4062C1321.74 42.3125 1322.06 43.4297 1322.06 44.7578ZM1381.1 29.8516C1381.1 31.8047 1380.63 33.5469 1379.7 35.0781C1378.77 36.6094 1377.45 37.8047 1375.71 38.6641C1373.99 39.5234 1372 39.9531 1369.73 39.9531H1363.15V52H1358.67V20.3828H1369.45C1373.17 20.3828 1376.04 21.2188 1378.05 22.8906C1380.09 24.5469 1381.1 26.8672 1381.1 29.8516ZM1376.6 29.9219C1376.6 25.9531 1374.04 23.9688 1368.91 23.9688H1363.15V36.4141H1369.1C1371.43 36.4141 1373.26 35.8438 1374.59 34.7031C1375.93 33.5625 1376.6 31.9688 1376.6 29.9219ZM1408.2 30.4844C1406.45 30.1875 1404.79 30.0391 1403.23 30.0391C1400.71 30.0391 1398.68 30.9844 1397.13 32.875C1395.59 34.7656 1394.81 37.1719 1394.81 40.0938V52H1390.59V35.5703C1390.59 34.3828 1390.48 32.9844 1390.27 31.375C1390.06 29.7656 1389.77 28.1875 1389.38 26.6406H1393.38C1394.01 28.7969 1394.38 30.75 1394.51 32.5H1394.62C1395.41 30.75 1396.17 29.4688 1396.92 28.6562C1397.67 27.8281 1398.56 27.2109 1399.59 26.8047C1400.62 26.3828 1401.88 26.1719 1403.37 26.1719C1404.99 26.1719 1406.6 26.3047 1408.2 26.5703V30.4844ZM1429.99 48.6719H1438.9V52H1415.88V48.6719H1425.77V29.9688H1418.3V26.6406H1429.99V48.6719ZM1425.3 21.7188V17.2188H1429.99V21.7188H1425.3ZM1444.41 39.2969C1444.41 35.0781 1445.41 31.8359 1447.43 29.5703C1449.45 27.3047 1452.36 26.1719 1456.17 26.1719C1459.02 26.1719 1461.36 26.8594 1463.2 28.2344C1465.05 29.5938 1466.19 31.4297 1466.62 33.7422L1462.12 34.0703C1461.88 32.6484 1461.25 31.5312 1460.25 30.7188C1459.25 29.8906 1457.83 29.4766 1455.98 29.4766C1453.52 29.4766 1451.7 30.2422 1450.55 31.7734C1449.41 33.3047 1448.84 35.7812 1448.84 39.2031C1448.84 42.6719 1449.41 45.2109 1450.55 46.8203C1451.7 48.4141 1453.51 49.2109 1455.96 49.2109C1457.65 49.2109 1459.05 48.7969 1460.16 47.9688C1461.27 47.1406 1461.95 45.875 1462.22 44.1719L1466.67 44.4531C1466.47 45.9531 1465.9 47.3203 1464.96 48.5547C1464.04 49.7734 1462.81 50.7344 1461.28 51.4375C1459.75 52.125 1458.04 52.4688 1456.15 52.4688C1452.32 52.4688 1449.41 51.3438 1447.41 49.0938C1445.41 46.8438 1444.41 43.5781 1444.41 39.2969ZM1477.73 40.2109C1477.73 43.0547 1478.36 45.2812 1479.61 46.8906C1480.88 48.5 1482.6 49.3047 1484.79 49.3047C1486.4 49.3047 1487.8 48.9609 1489.01 48.2734C1490.23 47.5703 1491.04 46.6172 1491.45 45.4141L1495.15 46.4688C1494.46 48.4062 1493.2 49.8906 1491.35 50.9219C1489.52 51.9531 1487.34 52.4688 1484.79 52.4688C1481.1 52.4688 1478.27 51.3203 1476.28 49.0234C1474.3 46.7266 1473.3 43.4375 1473.3 39.1562C1473.3 34.9844 1474.27 31.7812 1476.21 29.5469C1478.16 27.2969 1480.98 26.1719 1484.65 26.1719C1488.32 26.1719 1491.1 27.2891 1492.99 29.5234C1494.88 31.7578 1495.83 35.1328 1495.83 39.6484V40.2109H1477.73ZM1484.7 29.2891C1482.6 29.2891 1480.95 29.9766 1479.73 31.3516C1478.51 32.7109 1477.86 34.5859 1477.78 36.9766H1491.47C1491.03 31.8516 1488.77 29.2891 1484.7 29.2891Z" fill="#9CA3AF"/>
</svg>
