<svg width="1238" height="148" viewBox="0 0 1238 148" fill="none" xmlns="http://www.w3.org/2000/svg">
<rect x="1.5" y="29.5" width="447" height="77" stroke="#9CA3AF" stroke-width="3"/>
<path d="M44.4297 80L35.8516 66.5234H30.2734V80H25.7969V48.3828H37.0938C40.7344 48.3828 43.5078 49.1406 45.4141 50.6562C47.3203 52.1562 48.2734 54.3125 48.2734 57.125C48.2734 59.4531 47.5391 61.4141 46.0703 63.0078C44.6172 64.6016 42.6641 65.6016 40.2109 66.0078L49.5859 80H44.4297ZM43.7734 57.1953C43.7734 53.7109 41.3984 51.9688 36.6484 51.9688H30.2734V62.9844H36.8359C39.0703 62.9844 40.7812 62.4844 41.9688 61.4844C43.1719 60.4844 43.7734 59.0547 43.7734 57.1953ZM68.2891 76.6719H77.1953V80H54.1797V76.6719H64.0703V57.9688H56.5938V54.6406H68.2891V76.6719ZM63.6016 49.7188V45.2188H68.2891V49.7188H63.6016ZM104.5 72.7578C104.5 75.1641 103.586 77.0547 101.758 78.4297C99.9453 79.7891 97.4297 80.4688 94.2109 80.4688C90.9922 80.4688 88.5391 79.9688 86.8516 78.9688C85.1797 77.9531 84.0859 76.3594 83.5703 74.1875L87.2969 73.4609C87.5938 74.8047 88.2266 75.7891 89.1953 76.4141C90.1797 77.0234 91.8516 77.3281 94.2109 77.3281C98.4297 77.3281 100.539 75.9922 100.539 73.3203C100.539 72.3203 100.156 71.5156 99.3906 70.9062C98.625 70.2812 97.4531 69.7734 95.875 69.3828C91.75 68.3672 89.1328 67.5703 88.0234 66.9922C86.9141 66.4141 86.0625 65.6953 85.4688 64.8359C84.875 63.9609 84.5781 62.875 84.5781 61.5781C84.5781 59.2812 85.4062 57.4844 87.0625 56.1875C88.7188 54.8906 91.1172 54.2422 94.2578 54.2422C97.0078 54.2422 99.2031 54.7656 100.844 55.8125C102.484 56.8438 103.508 58.3516 103.914 60.3359L100.117 60.8047C99.9453 59.6797 99.3906 58.8281 98.4531 58.25C97.5156 57.6719 96.1172 57.3828 94.2578 57.3828C90.4297 57.3828 88.5156 58.5625 88.5156 60.9219C88.5156 61.8594 88.8359 62.6094 89.4766 63.1719C90.1328 63.7344 91.1797 64.1875 92.6172 64.5312L95.4062 65.2578C97.9531 65.8828 99.7812 66.5 100.891 67.1094C102.016 67.7188 102.898 68.4844 103.539 69.4062C104.18 70.3125 104.5 71.4297 104.5 72.7578ZM129.906 80L121.328 68.3047L118.234 70.6016V80H114.016V45.2188H118.234V66.9453L129.367 54.6406H134.312L124.023 65.5391L134.852 80H129.906ZM191.688 67.2031C191.688 76.0469 188.625 80.4688 182.5 80.4688C178.656 80.4688 176.07 79.0312 174.742 76.1562H174.625C174.688 76.2812 174.719 77.5781 174.719 80.0469V89.9609H170.477V59.8906C170.477 57.2344 170.43 55.4844 170.336 54.6406H174.438C174.453 54.7031 174.477 54.9375 174.508 55.3438C174.539 55.7344 174.57 56.3203 174.602 57.1016C174.648 57.8672 174.672 58.4375 174.672 58.8125H174.766C175.547 57.1719 176.539 55.9844 177.742 55.25C178.961 54.5 180.547 54.125 182.5 54.125C185.594 54.125 187.898 55.1953 189.414 57.3359C190.93 59.4609 191.688 62.75 191.688 67.2031ZM187.328 67.2031C187.328 63.6719 186.852 61.1562 185.898 59.6562C184.945 58.1406 183.445 57.3828 181.398 57.3828C179.039 57.3828 177.336 58.2422 176.289 59.9609C175.242 61.6641 174.719 64.25 174.719 67.7188C174.719 71.0469 175.242 73.4844 176.289 75.0312C177.336 76.5781 179.023 77.3516 181.352 77.3516C183.43 77.3516 184.945 76.5625 185.898 74.9844C186.852 73.4062 187.328 70.8125 187.328 67.2031ZM202.516 68.2109C202.516 71.0547 203.141 73.2812 204.391 74.8906C205.656 76.5 207.383 77.3047 209.57 77.3047C211.18 77.3047 212.586 76.9609 213.789 76.2734C215.008 75.5703 215.82 74.6172 216.227 73.4141L219.93 74.4688C219.242 76.4062 217.977 77.8906 216.133 78.9219C214.305 79.9531 212.117 80.4688 209.57 80.4688C205.883 80.4688 203.047 79.3203 201.062 77.0234C199.078 74.7266 198.086 71.4375 198.086 67.1562C198.086 62.9844 199.055 59.7812 200.992 57.5469C202.945 55.2969 205.758 54.1719 209.43 54.1719C213.102 54.1719 215.883 55.2891 217.773 57.5234C219.664 59.7578 220.609 63.1328 220.609 67.6484V68.2109H202.516ZM209.477 57.2891C207.383 57.2891 205.727 57.9766 204.508 59.3516C203.289 60.7109 202.641 62.5859 202.562 64.9766H216.25C215.812 59.8516 213.555 57.2891 209.477 57.2891ZM248.289 58.4844C246.539 58.1875 244.883 58.0391 243.32 58.0391C240.805 58.0391 238.773 58.9844 237.227 60.875C235.68 62.7656 234.906 65.1719 234.906 68.0938V80H230.688V63.5703C230.688 62.3828 230.578 60.9844 230.359 59.375C230.156 57.7656 229.859 56.1875 229.469 54.6406H233.477C234.102 56.7969 234.477 58.75 234.602 60.5H234.719C235.5 58.75 236.266 57.4688 237.016 56.6562C237.766 55.8281 238.656 55.2109 239.688 54.8047C240.719 54.3828 241.977 54.1719 243.461 54.1719C245.086 54.1719 246.695 54.3047 248.289 54.5703V58.4844ZM298.07 52.0391V80H293.617V52.0391H283.234V48.3828H308.453V52.0391H298.07ZM334.773 58.4844C333.023 58.1875 331.367 58.0391 329.805 58.0391C327.289 58.0391 325.258 58.9844 323.711 60.875C322.164 62.7656 321.391 65.1719 321.391 68.0938V80H317.172V63.5703C317.172 62.3828 317.062 60.9844 316.844 59.375C316.641 57.7656 316.344 56.1875 315.953 54.6406H319.961C320.586 56.7969 320.961 58.75 321.086 60.5H321.203C321.984 58.75 322.75 57.4688 323.5 56.6562C324.25 55.8281 325.141 55.2109 326.172 54.8047C327.203 54.3828 328.461 54.1719 329.945 54.1719C331.57 54.1719 333.18 54.3047 334.773 54.5703V58.4844ZM364.914 77.3984C365.32 77.3984 365.781 77.3438 366.297 77.2344V79.8594C365.234 80.1094 364.148 80.2344 363.039 80.2344C361.477 80.2344 360.336 79.8281 359.617 79.0156C358.914 78.1875 358.516 76.8984 358.422 75.1484H358.281C357.266 77.0391 356.062 78.3984 354.672 79.2266C353.297 80.0547 351.594 80.4688 349.562 80.4688C347.094 80.4688 345.234 79.7969 343.984 78.4531C342.734 77.1094 342.109 75.2656 342.109 72.9219C342.109 67.4688 345.656 64.7031 352.75 64.625L358.281 64.5312V63.1484C358.281 61.1016 357.867 59.6328 357.039 58.7422C356.211 57.8359 354.891 57.3828 353.078 57.3828C351.234 57.3828 349.906 57.7109 349.094 58.3672C348.281 59.0234 347.797 60.0391 347.641 61.4141L343.234 61.0156C343.953 56.4531 347.258 54.1719 353.148 54.1719C356.273 54.1719 358.617 54.9062 360.18 56.375C361.758 57.8281 362.547 59.9375 362.547 62.7031V73.625C362.547 74.875 362.711 75.8203 363.039 76.4609C363.367 77.0859 363.992 77.3984 364.914 77.3984ZM350.641 77.2578C352.141 77.2578 353.469 76.8984 354.625 76.1797C355.781 75.4609 356.68 74.5 357.32 73.2969C357.961 72.0938 358.281 70.8516 358.281 69.5703V67.4844L353.828 67.5781C351.984 67.6094 350.578 67.8125 349.609 68.1875C348.641 68.5625 347.883 69.1406 347.336 69.9219C346.805 70.6875 346.539 71.7109 346.539 72.9922C346.539 74.2734 346.883 75.3047 347.57 76.0859C348.273 76.8672 349.297 77.2578 350.641 77.2578ZM388.141 75.9219C387.375 77.5625 386.359 78.7578 385.094 79.5078C383.828 80.2422 382.25 80.6094 380.359 80.6094C377.203 80.6094 374.883 79.5234 373.398 77.3516C371.914 75.1797 371.172 71.9062 371.172 67.5312C371.172 58.6875 374.234 54.2656 380.359 54.2656C382.25 54.2656 383.828 54.6016 385.094 55.2734C386.375 55.9453 387.398 57.0469 388.164 58.5781H388.211L388.164 55.0391V45.2188H392.383V74.7734C392.383 77.4141 392.43 79.1562 392.523 80H388.492C388.43 79.7656 388.375 79.1953 388.328 78.2891C388.281 77.3828 388.258 76.5938 388.258 75.9219H388.141ZM375.531 67.3906C375.531 70.8594 375.992 73.3906 376.914 74.9844C377.852 76.5625 379.367 77.3516 381.461 77.3516C383.742 77.3516 385.43 76.5312 386.523 74.8906C387.617 73.2344 388.164 70.6094 388.164 67.0156C388.164 63.6562 387.633 61.2109 386.57 59.6797C385.523 58.1484 383.836 57.3828 381.508 57.3828C379.398 57.3828 377.875 58.1875 376.938 59.7969C376 61.4062 375.531 63.9375 375.531 67.3906ZM404.312 68.2109C404.312 71.0547 404.938 73.2812 406.188 74.8906C407.453 76.5 409.18 77.3047 411.367 77.3047C412.977 77.3047 414.383 76.9609 415.586 76.2734C416.805 75.5703 417.617 74.6172 418.023 73.4141L421.727 74.4688C421.039 76.4062 419.773 77.8906 417.93 78.9219C416.102 79.9531 413.914 80.4688 411.367 80.4688C407.68 80.4688 404.844 79.3203 402.859 77.0234C400.875 74.7266 399.883 71.4375 399.883 67.1562C399.883 62.9844 400.852 59.7812 402.789 57.5469C404.742 55.2969 407.555 54.1719 411.227 54.1719C414.898 54.1719 417.68 55.2891 419.57 57.5234C421.461 59.7578 422.406 63.1328 422.406 67.6484V68.2109H404.312ZM411.273 57.2891C409.18 57.2891 407.523 57.9766 406.305 59.3516C405.086 60.7109 404.438 62.5859 404.359 64.9766H418.047C417.609 59.8516 415.352 57.2891 411.273 57.2891Z" fill="#FCA5A5"/>
<path d="M514.797 59.9375V56.4688H538.117V59.9375H514.797ZM514.797 71.9375V68.4688H538.117V71.9375H514.797Z" fill="#9CA3AF"/>
<path d="M627.234 40L624 31.0469H610.805L607.594 40H603L614.953 8.38281H620.039L631.781 40H627.234ZM617.438 11.7578L617.156 12.6719L615.539 17.6406L612 27.5547H622.852L618.797 15.8359L617.438 11.7578ZM634.875 27.2969C634.875 23.0781 635.883 19.8359 637.898 17.5703C639.914 15.3047 642.828 14.1719 646.641 14.1719C649.484 14.1719 651.828 14.8594 653.672 16.2344C655.516 17.5938 656.656 19.4297 657.094 21.7422L652.594 22.0703C652.344 20.6484 651.719 19.5312 650.719 18.7188C649.719 17.8906 648.297 17.4766 646.453 17.4766C643.984 17.4766 642.172 18.2422 641.016 19.7734C639.875 21.3047 639.305 23.7812 639.305 27.2031C639.305 30.6719 639.875 33.2109 641.016 34.8203C642.172 36.4141 643.977 37.2109 646.43 37.2109C648.117 37.2109 649.516 36.7969 650.625 35.9688C651.734 35.1406 652.422 33.875 652.688 32.1719L657.141 32.4531C656.938 33.9531 656.367 35.3203 655.43 36.5547C654.508 37.7734 653.281 38.7344 651.75 39.4375C650.219 40.125 648.508 40.4688 646.617 40.4688C642.789 40.4688 639.875 39.3438 637.875 37.0938C635.875 34.8438 634.875 31.5781 634.875 27.2969ZM663.703 27.2969C663.703 23.0781 664.711 19.8359 666.727 17.5703C668.742 15.3047 671.656 14.1719 675.469 14.1719C678.312 14.1719 680.656 14.8594 682.5 16.2344C684.344 17.5938 685.484 19.4297 685.922 21.7422L681.422 22.0703C681.172 20.6484 680.547 19.5312 679.547 18.7188C678.547 17.8906 677.125 17.4766 675.281 17.4766C672.812 17.4766 671 18.2422 669.844 19.7734C668.703 21.3047 668.133 23.7812 668.133 27.2031C668.133 30.6719 668.703 33.2109 669.844 34.8203C671 36.4141 672.805 37.2109 675.258 37.2109C676.945 37.2109 678.344 36.7969 679.453 35.9688C680.562 35.1406 681.25 33.875 681.516 32.1719L685.969 32.4531C685.766 33.9531 685.195 35.3203 684.258 36.5547C683.336 37.7734 682.109 38.7344 680.578 39.4375C679.047 40.125 677.336 40.4688 675.445 40.4688C671.617 40.4688 668.703 39.3438 666.703 37.0938C664.703 34.8438 663.703 31.5781 663.703 27.2969ZM715.195 27.2969C715.195 31.5625 714.211 34.8281 712.242 37.0938C710.289 39.3438 707.461 40.4688 703.758 40.4688C700.133 40.4688 697.352 39.3281 695.414 37.0469C693.492 34.7656 692.531 31.5156 692.531 27.2969C692.531 22.9375 693.516 19.6641 695.484 17.4766C697.469 15.2734 700.273 14.1719 703.898 14.1719C707.711 14.1719 710.547 15.2578 712.406 17.4297C714.266 19.6016 715.195 22.8906 715.195 27.2969ZM710.766 27.2969C710.766 23.9375 710.227 21.4297 709.148 19.7734C708.086 18.1172 706.359 17.2891 703.969 17.2891C701.547 17.2891 699.773 18.1328 698.648 19.8203C697.523 21.5078 696.961 24 696.961 27.2969C696.961 30.5781 697.523 33.0781 698.648 34.7969C699.773 36.5 701.461 37.3516 703.711 37.3516C706.195 37.3516 707.992 36.5156 709.102 34.8438C710.211 33.1719 710.766 30.6562 710.766 27.2969ZM726.867 14.6406V30.7188C726.867 33.1562 727.25 34.8516 728.016 35.8047C728.781 36.7422 730.148 37.2109 732.117 37.2109C734.133 37.2109 735.727 36.5234 736.898 35.1484C738.07 33.7734 738.656 31.8359 738.656 29.3359V14.6406H742.898V34.5859C742.898 37.5391 742.945 39.3438 743.039 40H739.055C739.039 39.9219 739.023 39.7109 739.008 39.3672C738.992 39.0234 738.969 38.6328 738.938 38.1953C738.922 37.7422 738.898 36.8984 738.867 35.6641H738.797C737.828 37.4141 736.703 38.6562 735.422 39.3906C734.156 40.1094 732.578 40.4688 730.688 40.4688C727.906 40.4688 725.867 39.7812 724.57 38.4062C723.289 37.0156 722.648 34.7266 722.648 31.5391V14.6406H726.867ZM767.484 40V23.7109C767.484 21.5859 767.07 20.0078 766.242 18.9766C765.43 17.9453 764.125 17.4297 762.328 17.4297C760.391 17.4297 758.797 18.1406 757.547 19.5625C756.312 20.9688 755.695 22.8828 755.695 25.3047V40H751.477V20.0547C751.477 17.1016 751.43 15.2969 751.336 14.6406H755.32C755.336 14.7187 755.352 14.9297 755.367 15.2734C755.383 15.6172 755.398 16.0156 755.414 16.4688C755.445 16.9062 755.477 17.7422 755.508 18.9766H755.578C757.219 15.7734 759.922 14.1719 763.688 14.1719C766.391 14.1719 768.406 14.9062 769.734 16.375C771.062 17.8281 771.727 20.0703 771.727 23.1016V40H767.484ZM780.422 17.9688V14.6406H784.406L785.766 8.03125H788.578V14.6406H798.703V17.9688H788.578V33.25C788.578 34.4844 788.906 35.3984 789.562 35.9922C790.234 36.5859 791.328 36.8828 792.844 36.8828C794.938 36.8828 797.258 36.6172 799.805 36.0859V39.2969C797.164 40.0156 794.547 40.375 791.953 40.375C789.422 40.375 787.523 39.8438 786.258 38.7812C784.992 37.7031 784.359 36.0078 784.359 33.6953V17.9688H780.422ZM840.984 24.0391C840.984 28.3047 841.648 31.5078 842.977 33.6484C844.32 35.7734 846.367 36.8359 849.117 36.8359C850.695 36.8359 852.125 36.3047 853.406 35.2422C854.688 34.1641 855.773 32.4922 856.664 30.2266L860.391 31.75C858.062 37.5625 854.289 40.4688 849.07 40.4688C844.961 40.4688 841.797 39.0547 839.578 36.2266C837.375 33.3984 836.273 29.3359 836.273 24.0391C836.273 13.2734 840.461 7.89062 848.836 7.89062C854.133 7.89062 857.773 10.5078 859.758 15.7422L855.82 17.2656C855.242 15.5 854.336 14.1094 853.102 13.0938C851.883 12.0625 850.469 11.5469 848.859 11.5469C846.188 11.5469 844.203 12.5547 842.906 14.5703C841.625 16.5859 840.984 19.7422 840.984 24.0391ZM888.258 37.3984C888.664 37.3984 889.125 37.3438 889.641 37.2344V39.8594C888.578 40.1094 887.492 40.2344 886.383 40.2344C884.82 40.2344 883.68 39.8281 882.961 39.0156C882.258 38.1875 881.859 36.8984 881.766 35.1484H881.625C880.609 37.0391 879.406 38.3984 878.016 39.2266C876.641 40.0547 874.938 40.4688 872.906 40.4688C870.438 40.4688 868.578 39.7969 867.328 38.4531C866.078 37.1094 865.453 35.2656 865.453 32.9219C865.453 27.4688 869 24.7031 876.094 24.625L881.625 24.5312V23.1484C881.625 21.1016 881.211 19.6328 880.383 18.7422C879.555 17.8359 878.234 17.3828 876.422 17.3828C874.578 17.3828 873.25 17.7109 872.438 18.3672C871.625 19.0234 871.141 20.0391 870.984 21.4141L866.578 21.0156C867.297 16.4531 870.602 14.1719 876.492 14.1719C879.617 14.1719 881.961 14.9062 883.523 16.375C885.102 17.8281 885.891 19.9375 885.891 22.7031V33.625C885.891 34.875 886.055 35.8203 886.383 36.4609C886.711 37.0859 887.336 37.3984 888.258 37.3984ZM873.984 37.2578C875.484 37.2578 876.812 36.8984 877.969 36.1797C879.125 35.4609 880.023 34.5 880.664 33.2969C881.305 32.0938 881.625 30.8516 881.625 29.5703V27.4844L877.172 27.5781C875.328 27.6094 873.922 27.8125 872.953 28.1875C871.984 28.5625 871.227 29.1406 870.68 29.9219C870.148 30.6875 869.883 31.7109 869.883 32.9922C869.883 34.2734 870.227 35.3047 870.914 36.0859C871.617 36.8672 872.641 37.2578 873.984 37.2578ZM916.828 27.2031C916.828 36.0469 913.766 40.4688 907.641 40.4688C903.797 40.4688 901.211 39.0312 899.883 36.1562H899.766C899.828 36.2812 899.859 37.5781 899.859 40.0469V49.9609H895.617V19.8906C895.617 17.2344 895.57 15.4844 895.477 14.6406H899.578C899.594 14.7031 899.617 14.9375 899.648 15.3438C899.68 15.7344 899.711 16.3203 899.742 17.1016C899.789 17.8672 899.812 18.4375 899.812 18.8125H899.906C900.688 17.1719 901.68 15.9844 902.883 15.25C904.102 14.5 905.688 14.125 907.641 14.125C910.734 14.125 913.039 15.1953 914.555 17.3359C916.07 19.4609 916.828 22.75 916.828 27.2031ZM912.469 27.2031C912.469 23.6719 911.992 21.1562 911.039 19.6562C910.086 18.1406 908.586 17.3828 906.539 17.3828C904.18 17.3828 902.477 18.2422 901.43 19.9609C900.383 21.6641 899.859 24.25 899.859 27.7188C899.859 31.0469 900.383 33.4844 901.43 35.0312C902.477 36.5781 904.164 37.3516 906.492 37.3516C908.57 37.3516 910.086 36.5625 911.039 34.9844C911.992 33.4062 912.469 30.8125 912.469 27.2031ZM937.57 36.6719H946.477V40H923.461V36.6719H933.352V17.9688H925.875V14.6406H937.57V36.6719ZM932.883 9.71875V5.21875H937.57V9.71875H932.883ZM953.391 17.9688V14.6406H957.375L958.734 8.03125H961.547V14.6406H971.672V17.9688H961.547V33.25C961.547 34.4844 961.875 35.3984 962.531 35.9922C963.203 36.5859 964.297 36.8828 965.812 36.8828C967.906 36.8828 970.227 36.6172 972.773 36.0859V39.2969C970.133 40.0156 967.516 40.375 964.922 40.375C962.391 40.375 960.492 39.8438 959.227 38.7812C957.961 37.7031 957.328 36.0078 957.328 33.6953V17.9688H953.391ZM1003.57 37.3984C1003.98 37.3984 1004.44 37.3438 1004.95 37.2344V39.8594C1003.89 40.1094 1002.8 40.2344 1001.7 40.2344C1000.13 40.2344 998.992 39.8281 998.273 39.0156C997.57 38.1875 997.172 36.8984 997.078 35.1484H996.938C995.922 37.0391 994.719 38.3984 993.328 39.2266C991.953 40.0547 990.25 40.4688 988.219 40.4688C985.75 40.4688 983.891 39.7969 982.641 38.4531C981.391 37.1094 980.766 35.2656 980.766 32.9219C980.766 27.4688 984.312 24.7031 991.406 24.625L996.938 24.5312V23.1484C996.938 21.1016 996.523 19.6328 995.695 18.7422C994.867 17.8359 993.547 17.3828 991.734 17.3828C989.891 17.3828 988.562 17.7109 987.75 18.3672C986.938 19.0234 986.453 20.0391 986.297 21.4141L981.891 21.0156C982.609 16.4531 985.914 14.1719 991.805 14.1719C994.93 14.1719 997.273 14.9062 998.836 16.375C1000.41 17.8281 1001.2 19.9375 1001.2 22.7031V33.625C1001.2 34.875 1001.37 35.8203 1001.7 36.4609C1002.02 37.0859 1002.65 37.3984 1003.57 37.3984ZM989.297 37.2578C990.797 37.2578 992.125 36.8984 993.281 36.1797C994.438 35.4609 995.336 34.5 995.977 33.2969C996.617 32.0938 996.938 30.8516 996.938 29.5703V27.4844L992.484 27.5781C990.641 27.6094 989.234 27.8125 988.266 28.1875C987.297 28.5625 986.539 29.1406 985.992 29.9219C985.461 30.6875 985.195 31.7109 985.195 32.9922C985.195 34.2734 985.539 35.3047 986.227 36.0859C986.93 36.8672 987.953 37.2578 989.297 37.2578ZM1023.84 36.6719H1032.75V40H1009.73V36.6719H1019.62V8.54688H1012.85V5.21875H1023.84V36.6719ZM1079.98 12.1562L1086.16 9.74219L1087.22 12.8359L1080.61 14.5469L1084.95 20.4062L1082.16 22.0938L1078.64 16.0469L1074.98 22.0469L1072.2 20.3594L1076.62 14.5469L1070.06 12.8359L1071.12 9.69531L1077.38 12.2031L1077.09 5.24219H1080.28L1079.98 12.1562ZM1144.34 40L1135.76 26.5234H1130.18V40H1125.7V8.38281H1137C1140.64 8.38281 1143.41 9.14062 1145.32 10.6562C1147.23 12.1562 1148.18 14.3125 1148.18 17.125C1148.18 19.4531 1147.45 21.4141 1145.98 23.0078C1144.52 24.6016 1142.57 25.6016 1140.12 26.0078L1149.49 40H1144.34ZM1143.68 17.1953C1143.68 13.7109 1141.3 11.9688 1136.55 11.9688H1130.18V22.9844H1136.74C1138.98 22.9844 1140.69 22.4844 1141.88 21.4844C1143.08 20.4844 1143.68 19.0547 1143.68 17.1953ZM1168.2 36.6719H1177.1V40H1154.09V36.6719H1163.98V17.9688H1156.5V14.6406H1168.2V36.6719ZM1163.51 9.71875V5.21875H1168.2V9.71875H1163.51ZM1204.41 32.7578C1204.41 35.1641 1203.49 37.0547 1201.66 38.4297C1199.85 39.7891 1197.34 40.4688 1194.12 40.4688C1190.9 40.4688 1188.45 39.9688 1186.76 38.9688C1185.09 37.9531 1183.99 36.3594 1183.48 34.1875L1187.2 33.4609C1187.5 34.8047 1188.13 35.7891 1189.1 36.4141C1190.09 37.0234 1191.76 37.3281 1194.12 37.3281C1198.34 37.3281 1200.45 35.9922 1200.45 33.3203C1200.45 32.3203 1200.06 31.5156 1199.3 30.9062C1198.53 30.2812 1197.36 29.7734 1195.78 29.3828C1191.66 28.3672 1189.04 27.5703 1187.93 26.9922C1186.82 26.4141 1185.97 25.6953 1185.38 24.8359C1184.78 23.9609 1184.48 22.875 1184.48 21.5781C1184.48 19.2812 1185.31 17.4844 1186.97 16.1875C1188.62 14.8906 1191.02 14.2422 1194.16 14.2422C1196.91 14.2422 1199.11 14.7656 1200.75 15.8125C1202.39 16.8438 1203.41 18.3516 1203.82 20.3359L1200.02 20.8047C1199.85 19.6797 1199.3 18.8281 1198.36 18.25C1197.42 17.6719 1196.02 17.3828 1194.16 17.3828C1190.34 17.3828 1188.42 18.5625 1188.42 20.9219C1188.42 21.8594 1188.74 22.6094 1189.38 23.1719C1190.04 23.7344 1191.09 24.1875 1192.52 24.5312L1195.31 25.2578C1197.86 25.8828 1199.69 26.5 1200.8 27.1094C1201.92 27.7188 1202.8 28.4844 1203.45 29.4062C1204.09 30.3125 1204.41 31.4297 1204.41 32.7578ZM1229.81 40L1221.23 28.3047L1218.14 30.6016V40H1213.92V5.21875H1218.14V26.9453L1229.27 14.6406H1234.22L1223.93 25.5391L1234.76 40H1229.81Z" fill="#9CA3AF"/>
<line x1="1238" y1="69" x2="603" y2="69" stroke="#9CA3AF" stroke-width="4"/>
<path d="M880.68 134V130.602H890.969V106.672C890.391 107.891 889.016 108.953 886.844 109.859C884.688 110.766 882.562 111.219 880.469 111.219V107.75C882.781 107.75 884.961 107.242 887.008 106.227C889.07 105.211 890.508 103.93 891.32 102.383H895.211V130.602H903.484V134H880.68ZM931.68 118.18C931.68 123.461 930.703 127.5 928.75 130.297C926.812 133.078 923.945 134.469 920.148 134.469C916.352 134.469 913.5 133.086 911.594 130.32C909.688 127.539 908.734 123.492 908.734 118.18C908.734 112.727 909.664 108.648 911.523 105.945C913.383 103.242 916.305 101.891 920.289 101.891C924.18 101.891 927.047 103.258 928.891 105.992C930.75 108.711 931.68 112.773 931.68 118.18ZM927.391 118.18C927.391 113.648 926.836 110.375 925.727 108.359C924.633 106.328 922.82 105.312 920.289 105.312C917.695 105.312 915.828 106.312 914.688 108.312C913.562 110.312 913 113.602 913 118.18C913 122.633 913.57 125.891 914.711 127.953C915.867 130 917.695 131.023 920.195 131.023C922.68 131.023 924.5 129.969 925.656 127.859C926.812 125.75 927.391 122.523 927.391 118.18ZM917.453 120.992V115.156H922.961V120.992H917.453ZM960.508 118.18C960.508 123.461 959.531 127.5 957.578 130.297C955.641 133.078 952.773 134.469 948.977 134.469C945.18 134.469 942.328 133.086 940.422 130.32C938.516 127.539 937.562 123.492 937.562 118.18C937.562 112.727 938.492 108.648 940.352 105.945C942.211 103.242 945.133 101.891 949.117 101.891C953.008 101.891 955.875 103.258 957.719 105.992C959.578 108.711 960.508 112.773 960.508 118.18ZM956.219 118.18C956.219 113.648 955.664 110.375 954.555 108.359C953.461 106.328 951.648 105.312 949.117 105.312C946.523 105.312 944.656 106.312 943.516 108.312C942.391 110.312 941.828 113.602 941.828 118.18C941.828 122.633 942.398 125.891 943.539 127.953C944.695 130 946.523 131.023 949.023 131.023C951.508 131.023 953.328 129.969 954.484 127.859C955.641 125.75 956.219 122.523 956.219 118.18ZM946.281 120.992V115.156H951.789V120.992H946.281Z" fill="#9CA3AF"/>
</svg>
